<?xml version="1.0" encoding="UTF-8"?>
<!DOCTYPE svg PUBLIC "-//W3C//DTD SVG 1.1//EN" "http://www.w3.org/Graphics/SVG/1.1/DTD/svg11.dtd">
<!-- Creator: CorelDRAW X7 -->
<svg xmlns="http://www.w3.org/2000/svg" xml:space="preserve" width="11in" height="8.5in" version="1.1" style="shape-rendering:geometricPrecision; text-rendering:geometricPrecision; image-rendering:optimizeQuality; fill-rule:evenodd; clip-rule:evenodd"
viewBox="0 0 11000 8500"
 xmlns:xlink="http://www.w3.org/1999/xlink">
 <defs>
  <style type="text/css">
   <![CDATA[
    .fil0 {fill:#373435;fill-rule:nonzero}
   ]]>
  </style>
 </defs>
 <g id="Layer_x0020_1">
  <metadata id="CorelCorpID_0Corel-Layer"/>
  <g id="_2984605243728">
   <polygon class="fil0" points="4154,4906 3686,3973 3344,4657 3752,4657 3876,4906 2944,4906 3564,3666 3810,3666 4430,4906 "/>
   <path class="fil0" d="M4913 3676c129,0 243,26 341,76 99,51 175,124 228,218 54,94 81,203 81,327 0,124 -27,233 -81,326 -53,93 -129,164 -228,215 -98,51 -212,77 -341,77l-432 0 0 -1239 432 0zm-9 1027c129,0 229,-35 300,-106 71,-71 106,-171 106,-300 0,-129 -35,-230 -106,-302 -71,-73 -171,-110 -300,-110l-175 0 0 818 175 0zm1092 -1027l0 1239 -248 0 0 -1239 248 0zm1000 1003l-492 0 -81 236 -260 0 444 -1241 288 0 443 1241 -261 0 -81 -236zm-68 -199l-178 -518 -178 518 356 0zm1212 435l-272 -483 -116 0 0 483 -248 0 0 -1239 463 0c96,0 177,17 244,51 67,33 118,79 151,136 34,58 50,122 50,193 0,81 -23,155 -70,221 -47,65 -117,111 -210,135l295 503 -287 0zm-388 -669l206 0c68,0 118,-17 151,-49 33,-33 49,-78 49,-136 0,-57 -16,-101 -49,-132 -33,-31 -83,-47 -151,-47l-206 0 0 364zm1724 -570l0 201 -329 0 0 1038 -247 0 0 -1038 -329 0 0 -201 905 0zm936 1003l-491 0 -81 236 -260 0 444 -1241 288 0 443 1241 -261 0 -82 -236zm-67 -199l-178 -518 -179 518 357 0z"/>
  </g>
  <path class="fil0" d="M3974 5365c0,-40 9,-75 25,-106 17,-31 39,-55 68,-72 28,-17 60,-25 95,-25 26,0 52,5 77,17 25,11 45,26 60,45l0 -192 83 0 0 533 -83 0 0 -59c-13,19 -32,35 -56,47 -23,13 -51,19 -81,19 -35,0 -67,-9 -95,-26 -29,-18 -51,-42 -68,-74 -16,-31 -25,-67 -25,-107zm325 1c0,-27 -5,-51 -17,-71 -11,-20 -26,-35 -44,-46 -18,-11 -38,-16 -59,-16 -21,0 -41,5 -59,16 -18,10 -33,25 -45,45 -11,20 -16,44 -16,71 0,27 5,51 16,72 12,21 27,37 45,47 19,11 38,17 59,17 21,0 41,-6 59,-16 18,-11 33,-26 44,-47 12,-20 17,-44 17,-72zm389 -1c0,-40 8,-75 25,-106 16,-31 39,-55 67,-72 29,-17 61,-25 95,-25 31,0 59,6 82,18 23,12 42,28 56,46l0 -58 83 0 0 397 -83 0 0 -59c-14,19 -33,35 -57,47 -24,13 -52,19 -82,19 -34,0 -66,-9 -94,-26 -28,-18 -51,-42 -67,-74 -17,-31 -25,-67 -25,-107zm325 1c0,-27 -6,-51 -17,-71 -11,-20 -26,-35 -44,-46 -19,-11 -38,-16 -60,-16 -21,0 -40,5 -59,16 -18,10 -33,25 -44,45 -11,20 -17,44 -17,71 0,27 6,51 17,72 11,21 26,37 45,47 18,11 38,17 58,17 22,0 41,-6 60,-16 18,-11 33,-26 44,-47 11,-20 17,-44 17,-72zm560 206c-31,0 -59,-6 -84,-17 -25,-11 -45,-27 -59,-46 -14,-20 -22,-41 -23,-65l85 0c1,16 10,30 24,42 15,11 33,17 55,17 23,0 41,-5 54,-14 13,-9 19,-20 19,-34 0,-15 -7,-26 -21,-33 -14,-7 -37,-15 -68,-24 -29,-8 -54,-16 -72,-24 -19,-7 -35,-19 -49,-35 -14,-16 -21,-37 -21,-63 0,-21 7,-40 19,-58 13,-17 31,-31 54,-41 23,-10 50,-15 80,-15 45,0 82,11 109,34 28,23 43,54 45,93l-82 0c-2,-17 -9,-32 -22,-42 -13,-11 -31,-16 -53,-16 -21,0 -38,4 -49,12 -12,8 -18,19 -18,33 0,10 4,19 12,26 8,8 17,13 28,17 11,4 27,10 49,16 29,7 53,15 71,23 19,8 34,20 48,35 13,16 20,36 21,61 0,23 -6,43 -19,61 -12,18 -30,32 -53,42 -23,10 -49,15 -80,15zm671 -410c30,0 57,6 81,19 24,13 42,32 56,58 14,25 21,56 21,92l0 234 -82 0 0 -222c0,-35 -9,-62 -27,-81 -17,-19 -42,-29 -72,-29 -31,0 -55,10 -73,29 -18,19 -27,46 -27,81l0 222 -83 0 0 -533 83 0 0 182c13,-16 31,-29 52,-38 22,-10 45,-14 71,-14zm569 65c14,-19 33,-35 57,-47 25,-12 52,-18 81,-18 36,0 67,8 96,25 28,17 50,41 67,72 16,31 24,66 24,106 0,40 -8,76 -24,107 -17,32 -39,56 -68,74 -28,17 -60,26 -95,26 -30,0 -58,-6 -81,-18 -24,-12 -43,-28 -57,-46l0 57 -82 0 0 -533 82 0 0 195zm242 138c0,-27 -6,-51 -17,-71 -12,-20 -27,-35 -45,-45 -19,-11 -38,-16 -60,-16 -20,0 -40,5 -58,16 -19,11 -34,26 -45,46 -11,20 -17,44 -17,71 0,28 6,52 17,72 11,21 26,36 45,47 18,10 38,16 58,16 22,0 41,-6 60,-17 18,-10 33,-26 45,-47 11,-21 17,-45 17,-72zm562 207c-38,0 -72,-9 -102,-26 -30,-17 -54,-41 -71,-72 -18,-31 -26,-67 -26,-108 0,-40 9,-76 26,-107 18,-31 42,-55 73,-72 31,-17 65,-25 103,-25 38,0 73,8 103,25 31,17 55,41 73,72 18,31 27,67 27,107 0,41 -9,77 -28,108 -18,31 -43,55 -74,72 -32,17 -66,26 -104,26zm0 -71c21,0 41,-6 59,-16 19,-10 34,-25 45,-45 12,-20 17,-45 17,-74 0,-28 -5,-53 -16,-73 -11,-20 -26,-35 -44,-45 -18,-10 -38,-15 -59,-15 -21,0 -41,5 -59,15 -18,10 -32,25 -43,45 -10,20 -16,45 -16,73 0,43 11,76 33,100 22,23 50,35 83,35zm485 -136c0,-40 8,-75 25,-106 16,-31 39,-55 67,-72 29,-17 61,-25 95,-25 31,0 59,6 82,18 23,12 42,28 56,46l0 -58 83 0 0 397 -83 0 0 -59c-14,19 -33,35 -57,47 -24,13 -52,19 -82,19 -34,0 -66,-9 -94,-26 -28,-18 -51,-42 -67,-74 -17,-31 -25,-67 -25,-107zm325 1c0,-27 -6,-51 -17,-71 -11,-20 -26,-35 -44,-46 -19,-11 -38,-16 -60,-16 -21,0 -40,5 -59,16 -18,10 -33,25 -44,45 -11,20 -17,44 -17,71 0,27 6,51 17,72 11,21 26,37 45,47 18,11 38,17 58,17 22,0 41,-6 60,-16 18,-11 33,-26 44,-47 11,-20 17,-44 17,-72zm498 -140c12,-20 28,-36 48,-47 20,-12 43,-17 71,-17l0 85 -21 0c-32,0 -57,8 -73,24 -17,17 -25,45 -25,85l0 209 -82 0 0 -397 82 0 0 58zm392 139c0,-40 8,-75 25,-106 16,-31 39,-55 67,-72 29,-17 61,-25 96,-25 26,0 51,5 77,17 25,11 45,26 60,45l0 -192 83 0 0 533 -83 0 0 -59c-14,19 -32,35 -56,47 -24,13 -51,19 -82,19 -34,0 -66,-9 -95,-26 -28,-18 -51,-42 -67,-74 -17,-31 -25,-67 -25,-107zm325 1c0,-27 -6,-51 -17,-71 -11,-20 -26,-35 -44,-46 -19,-11 -38,-16 -59,-16 -22,0 -41,5 -60,16 -18,10 -33,25 -44,45 -11,20 -17,44 -17,71 0,27 6,51 17,72 11,21 26,37 45,47 18,11 38,17 59,17 21,0 40,-6 59,-16 18,-11 33,-26 44,-47 11,-20 17,-44 17,-72z"/>
 </g>
</svg>
