<svg xmlns="http://www.w3.org/2000/svg" viewBox="0 0 55.99 72"><defs><style>.cls-1{fill:#e5232a;}.cls-1,.cls-10,.cls-11,.cls-12,.cls-13,.cls-15,.cls-16,.cls-17,.cls-18,.cls-2,.cls-20,.cls-21,.cls-22,.cls-23,.cls-24,.cls-3,.cls-4,.cls-8{fill-rule:evenodd;}.cls-15,.cls-16,.cls-17,.cls-2,.cls-21,.cls-22,.cls-23{fill:#fff;}.cls-3{fill:#088c49;}.cls-4{fill:#279fda;}.cls-5{fill:#005736;}.cls-6{fill:#dcdddd;}.cls-10,.cls-7{fill:#1c1718;}.cls-8{fill:#fcee18;}.cls-9{fill:#eeeeef;}.cls-11{fill:#c9caca;}.cls-12{fill:#32c0d4;}.cls-13{fill:#f8c313;}.cls-14{fill:#181c1d;}.cls-15,.cls-16,.cls-21,.cls-22{stroke:#231f20;}.cls-15,.cls-16,.cls-17,.cls-18,.cls-21,.cls-22,.cls-23,.cls-24{stroke-miterlimit:2.61;}.cls-15,.cls-17,.cls-18{stroke-width:0.06px;}.cls-16{stroke-width:0.06px;}.cls-17,.cls-18,.cls-23,.cls-24{stroke:#000;}.cls-18,.cls-20,.cls-24{fill:#009b4b;}.cls-19{fill:#332c2b;}.cls-21,.cls-23,.cls-24{stroke-width:0.06px;}.cls-22{stroke-width:0.06px;}</style></defs><g id="Layer_2" data-name="Layer 2"><g id="Layer_1-2" data-name="Layer 1"><path class="cls-1" d="M28,72C24.9,65.61,5.79,64.22,1.06,54.29c-1.21-2.55-1-5.18-1-7.91V0H56V46.38c0,2.73.15,5.36-1.06,7.91C50.2,64.22,31.09,65.61,28,72Z"/><path class="cls-2" d="M28,70.58a15.37,15.37,0,0,1,5.45-3.79c1.48-.71,3-1.34,4.52-2s3.24-1.31,4.83-2C47,61,52.17,58.32,54.24,54c1.14-2.4,1-5,1-7.58V.76H.77V46.38c0,2.58-.16,5.18,1,7.58C3.83,58.32,9,61,13.19,62.81c1.6.71,3.22,1.36,4.83,2s3.05,1.25,4.53,2A15.55,15.55,0,0,1,28,70.58Z"/><path class="cls-3" d="M28,68.38a20.56,20.56,0,0,1,4.79-3c1.51-.72,3.05-1.36,4.6-2s3.21-1.31,4.8-2C46,59.73,51,57.25,52.86,53.3c1-2.11.84-4.64.84-6.92V16.27H34.18l.64-.5-5.12-.13L28,10.81l-1.71,4.83-5.12.13.65.5H2.3V46.38c0,2.28-.17,4.81.83,6.92C5,57.25,10,59.73,13.8,61.41c1.59.7,3.2,1.35,4.8,2s3.1,1.27,4.6,2a20.83,20.83,0,0,1,4.8,3Z"/><path class="cls-4" d="M28.28,39.65,18.2,39.54c-.51,0-1,.22-1.55.22s-1-.25-1.52-.25l-5.34-.06s-.46-.23.12-.51a3,3,0,0,1,.42-.16C17.62,36,23.59,31.19,26.77,22.26a10.12,10.12,0,0,1,3,0c2,5.66,6,9.76,10.33,13.29a14.51,14.51,0,0,0,8.8,2.85c.53,0-1.36.87-.85,1l-6.24.06c-.81,0-1.6.36-2.41.37s-1.65-.33-2.46-.32l-8.67.1Z"/><path class="cls-5" d="M28.28,39.69,18.2,39.58a4.2,4.2,0,0,0-.77.11,3.49,3.49,0,0,1-.78.11,2.89,2.89,0,0,1-.77-.13,3.26,3.26,0,0,0-.75-.12l-5.34-.06h0s-.54-.27.12-.59a1.53,1.53,0,0,1,.27-.11l.15,0a29.37,29.37,0,0,0,9.75-6,26.35,26.35,0,0,0,6.67-10.53v0h0a10.41,10.41,0,0,1,1.51-.12,10.52,10.52,0,0,1,1.51.12h0v0a24.92,24.92,0,0,0,4.29,7.43,43.7,43.7,0,0,0,6,5.84,12.07,12.07,0,0,0,4.17,2.14,19.06,19.06,0,0,0,4.61.7c.1,0,.14,0,.14.09h0c0,.09-.22.23-.46.4s-.53.36-.57.48,0,.05,0,.06v.09l-6.24.07a5.53,5.53,0,0,0-1.2.18,5.53,5.53,0,0,1-1.21.18,6.58,6.58,0,0,1-1.24-.16A5.73,5.73,0,0,0,37,39.6l-8.67.09v0Zm-10.08-.2,10.08.11L37,39.51a5.85,5.85,0,0,1,1.24.16,5.73,5.73,0,0,0,1.22.15,5.35,5.35,0,0,0,1.19-.18,5.71,5.71,0,0,1,1.22-.18l6.11-.07a.14.14,0,0,1,0-.09c0-.14.35-.35.61-.53a1.68,1.68,0,0,0,.42-.33H48.9a18.75,18.75,0,0,1-4.62-.71,11.81,11.81,0,0,1-4.2-2.15,43.42,43.42,0,0,1-6-5.86,24.79,24.79,0,0,1-4.29-7.43,11.47,11.47,0,0,0-1.47-.11,11.21,11.21,0,0,0-1.47.11,26.35,26.35,0,0,1-6.69,10.54,29,29,0,0,1-9.78,6l-.15,0L9.93,39c-.45.22-.18.4-.13.43l5.33.05a3.45,3.45,0,0,1,.77.13,3.26,3.26,0,0,0,.75.12,3.49,3.49,0,0,0,.77-.11,4.19,4.19,0,0,1,.78-.11Z"/><path class="cls-6" d="M9.75,39.21h5.38l.11,0a2.91,2.91,0,0,0,2.69,0l.11,0H38l.11,0a3.05,3.05,0,0,0,1.35.33,3,3,0,0,0,1.34-.33l.12,0h6.92v.51H40.92a3.45,3.45,0,0,1-1.51.36,3.52,3.52,0,0,1-1.52-.36H18.1a3.37,3.37,0,0,1-3,0H9.75v-.51Z"/><path class="cls-7" d="M9.55,10.79H7.31L6.16,8.27l-.69,1v1.54H3.55V4.11H5.47V6.87L7.31,4.11H9.14L7.46,6.56l2.09,4.23Zm3.17.11A3,3,0,0,1,10.44,10a3.43,3.43,0,0,1-.89-2.5A3.6,3.6,0,0,1,10.4,5a2.93,2.93,0,0,1,2.34-1A3,3,0,0,1,15,4.93a3.43,3.43,0,0,1,.88,2.46A3.62,3.62,0,0,1,15,9.94a3,3,0,0,1-2.28,1Zm0-1.52a.78.78,0,0,0,.75-.45,4.21,4.21,0,0,0,.22-1.66c0-1.16-.3-1.74-.93-1.74s-1,.66-1,2,.32,1.87,1,1.87Zm6.77-3.67v5.08H17.55V5.71H16.17V4.11h4.69v1.6Zm5.28,5.08-.38-1.31H22.59l-.39,1.31H20.54l2.05-6.68h2.17l2.08,6.68ZM22.94,8H24l-.54-1.94L22.94,8Zm7,2.77V4.11h3.38a2,2,0,0,1,1.53.54,1.72,1.72,0,0,1,.49,1.22,1.6,1.6,0,0,1-.28.9,1.44,1.44,0,0,1-.84.55,1.49,1.49,0,0,1,1.29,1.56,2.12,2.12,0,0,1-.45,1.33,2.45,2.45,0,0,1-2,.58Zm1.88-4.12h1a.62.62,0,0,0,.5-.18.59.59,0,0,0,.15-.38c0-.38-.23-.56-.69-.56h-.91V6.67Zm0,2.64h1a.74.74,0,0,0,.54-.19.6.6,0,0,0,.17-.41.58.58,0,0,0-.17-.42.77.77,0,0,0-.61-.2h-.93V9.31ZM40,10.79l-.38-1.31H37.88l-.4,1.31H35.82l2.06-6.68H40l2.08,6.68ZM38.22,8h1.09l-.55-1.94L38.22,8Zm6.87-2.31v5.08H43.15V5.71H41.77V4.11h4.7v1.6Zm7.36-1.6V8.54a2.1,2.1,0,0,1-.75,1.81,3.21,3.21,0,0,1-1.94.55,3.52,3.52,0,0,1-2-.53A2,2,0,0,1,47,8.65V4.11h2.08V8.4a1,1,0,0,0,.2.7.82.82,0,0,0,.64.23,1.13,1.13,0,0,0,.61-.16.64.64,0,0,0,.29-.36,4.63,4.63,0,0,0,0-.79V4.11Z"/><polygon class="cls-8" points="28 13.87 28.98 16.64 31.92 16.72 29.58 18.51 30.42 21.32 28 19.66 25.57 21.32 26.41 18.51 24.08 16.72 27.02 16.64 28 13.87 28 13.87"/><polygon class="cls-2" points="23.82 43.61 23.82 40.65 23.3 39.88 21.5 39.88 21.5 38.94 20.86 38.94 20.86 37.42 21.87 37.42 21.87 36.11 22.64 36.11 22.64 34.8 23.58 34.8 23.58 33.49 24.45 33.49 24.45 32.19 25.16 32.19 25.16 30.88 26 30.88 26 29.75 26.91 29.75 26.91 28.63 27.34 28.63 27.34 27.92 29.3 27.92 29.3 28.63 29.73 28.63 29.73 29.75 30.64 29.75 30.64 30.88 31.48 30.88 31.48 32.19 32.18 32.19 32.18 33.49 33.06 33.49 33.06 34.8 34 34.8 34 36.11 34.77 36.11 34.77 37.42 35.78 37.42 35.78 38.94 35.14 38.94 35.14 39.88 33.34 39.88 32.82 40.65 32.82 43.61 34.33 43.61 34.33 44.01 34.82 44.01 34.82 44.41 35.31 44.41 35.31 44.81 35.91 44.81 35.91 45.21 36.55 45.21 36.55 45.61 37.1 45.61 37.1 46.01 37.78 46.01 37.78 46.92 18.85 46.92 18.85 46.01 19.54 46.01 19.54 45.61 20.09 45.61 20.09 45.21 20.73 45.21 20.73 44.81 21.33 44.81 21.33 44.41 21.82 44.41 21.82 44.01 22.3 44.01 22.3 43.61 23.82 43.61 23.82 43.61"/><path class="cls-9" d="M9.49,41.57l7.4.19,8.43-2.17.37-.1-.17.35-.77,1.6-.07.08-.68.42,4.55.11,4.26-.11-1.17-.76-.05,0-1-1.39.2-.27,7.58,2.33,9.39-.23v.35l-8.34.21,10.06,3.1,0,.34-10,.36,3.76,2.46,4-.18v.35l-18.61.85h0L9.57,48.27l0-.35,3.64.21L17,45.79,4.75,45.23l0-.35,10.91-2.8-6.15-.16v-.35Zm8.69.22,5.17.13,1.1-.68L25,40l-6.86,1.76Zm10.37.61-5.11-.12-5.23,3.21L28.58,46l9.82-.35-5.07-3.32-4.78.11Zm-5.76-.14-5.86-.15L6,44.93l11.63.53,5.21-3.2Zm10.64-.33,3.86-.1L31.21,40l.65.94,1.57,1Zm4.93.23L34,42.27,39,45.59l9.41-.33-10.06-3.1ZM17.67,45.82l-3.83,2.35,14.8.89,14-.64L38.91,46l-10.32.36h0l-10.9-.49Z"/><polygon class="cls-10" points="22.56 43.86 24.07 43.86 24.07 40.57 23.43 39.63 21.75 39.63 21.75 38.69 21.11 38.69 21.11 37.67 22.12 37.67 22.12 36.37 22.89 36.37 22.89 35.06 23.84 35.06 23.84 33.75 24.71 33.75 24.71 32.44 25.41 32.44 25.41 31.13 26.25 31.13 26.25 30.01 27.16 30.01 27.16 28.88 27.6 28.88 27.6 28.18 29.04 28.18 29.04 28.88 29.48 28.88 29.48 30.01 30.39 30.01 30.39 31.13 31.22 31.13 31.22 32.44 31.93 32.44 31.93 33.75 32.8 33.75 32.8 35.06 33.74 35.06 33.74 36.37 34.52 36.37 34.52 37.67 35.52 37.67 35.52 38.69 34.89 38.69 34.89 39.63 33.21 39.63 32.57 40.57 32.57 43.86 34.08 43.86 34.08 44.26 34.56 44.26 34.56 44.66 35.06 44.66 35.06 45.06 35.65 45.06 35.65 45.46 36.29 45.46 36.29 45.86 36.85 45.86 36.85 46.26 36.83 46.26 37.53 46.26 37.53 46.66 19.79 46.66 19.11 46.66 19.11 46.26 19.79 46.26 19.79 45.86 20.34 45.86 20.34 45.46 20.98 45.46 20.98 45.06 21.58 45.06 21.58 44.66 22.07 44.66 22.07 44.26 22.56 44.26 22.56 43.86 22.56 43.86"/><path class="cls-10" d="M30.21,55.05l4.92-1.15a.64.64,0,0,1,.76.47h0a.63.63,0,0,1-.47.76L30.5,56.28a.63.63,0,0,1-.76-.47h0a.64.64,0,0,1,.47-.76Zm7.94-3.19,4.2-2.81a.63.63,0,0,1,.87.18h0a.62.62,0,0,1-.17.87l-4.2,2.81a.64.64,0,0,1-.88-.18h0a.63.63,0,0,1,.18-.87ZM25.78,55.08l-4.92-1.14a.63.63,0,0,0-.76.47h0a.63.63,0,0,0,.47.76l4.92,1.14a.63.63,0,0,0,.76-.47h0a.64.64,0,0,0-.47-.76Zm-7.93-3.19-3.41-2.27a.63.63,0,0,0-.88.17h0a.64.64,0,0,0,.18.88l3.4,2.27a.63.63,0,0,0,.88-.17h0a.65.65,0,0,0-.17-.88Zm7.88,1.44h4.53a1.56,1.56,0,0,1,1.43,1l-1,.24a.54.54,0,0,0-.4-.18H25.73a.53.53,0,0,0-.42.21l-1-.24a1.55,1.55,0,0,1,1.44-1Zm6.08,3.06v.3a1.56,1.56,0,0,1-1.55,1.55H25.73a1.56,1.56,0,0,1-1.55-1.55v-.26l1,.24v0a.53.53,0,0,0,.53.53h4.53a.53.53,0,0,0,.53-.53v-.06l1-.24Zm-9.66-3.81-3.8-2.47a1.54,1.54,0,0,0-2,.28l.86.58a.53.53,0,0,1,.59,0l3.8,2.47a.52.52,0,0,1,.22.31l1,.24a1.58,1.58,0,0,0-.7-1.4Zm-7-.45a1.56,1.56,0,0,0,.48,2.09l3.8,2.47a1.55,1.55,0,0,0,2.14-.45l.23-.36-1.05-.24,0,0a.52.52,0,0,1-.73.16l-3.8-2.47A.53.53,0,0,1,16,52.7l-.85-.57Zm18.65.45,3.8-2.47a1.57,1.57,0,0,1,2,.26l-.87.59a.53.53,0,0,0-.57,0l-3.8,2.47a.58.58,0,0,0-.21.28l-1,.24a1.57,1.57,0,0,1,.7-1.37Zm6.95-.48a1.57,1.57,0,0,1-.47,2.12l-3.8,2.47a1.56,1.56,0,0,1-2.14-.45l-.25-.39,1-.24,0,.07a.52.52,0,0,0,.73.16l3.8-2.47a.53.53,0,0,0,.18-.7l.85-.57Z"/><path class="cls-4" d="M27.62,46.15c5.33,0,9.81,1.47,11.16,3.48a1.8,1.8,0,0,0-1.27.26l-3.8,2.48A1.77,1.77,0,0,0,32.9,54l-1,.22a1.8,1.8,0,0,0-1.68-1.15H25.73A1.8,1.8,0,0,0,24,54.26L23.09,54a1.8,1.8,0,0,0-.8-1.67l-3.8-2.48a1.82,1.82,0,0,0-2.32.31c.82-2.29,5.64-4.05,11.45-4.05Z"/><path class="cls-10" d="M8.49,54.47a8.27,8.27,0,0,1,2.72-2.35l2.09,3.13a9.83,9.83,0,0,0-3.17,2.35A8.94,8.94,0,0,1,10.39,55a4.67,4.67,0,0,0-1.9-.49Z"/><path class="cls-2" d="M10.37,57a9.67,9.67,0,0,1,2.55-1.88l-1.79-2.67A8.33,8.33,0,0,0,9,54.26a4.74,4.74,0,0,1,1.54.48l.18.09,0,.2a8.9,8.9,0,0,0-.27,2Z"/><polygon class="cls-10" points="12.23 54.85 13.3 55.25 12.16 53.54 11.65 53.96 12.23 54.85 12.23 54.85"/><polygon class="cls-11" points="12.36 54.68 12.78 54.84 12.12 53.84 11.92 54 12.36 54.68 12.36 54.68"/><path class="cls-10" d="M10.72,52.51l1.51,2.34a2.7,2.7,0,0,1,1.51-1.27l-1.86-3.21-1.23,1c-.51.42-.28.56.07,1.11Z"/><path class="cls-2" d="M12.23,54.37a2.86,2.86,0,0,1,1.15-.91l-1.57-2.7-1,.83s-.2.18-.2.24a2.8,2.8,0,0,0,.33.54c.42.67.86,1.34,1.29,2Z"/><polygon class="cls-10" points="12.67 53.02 13.74 53.58 12.97 52.25 12.32 52.47 12.67 53.02 12.67 53.02"/><polygon class="cls-11" points="12.81 52.86 13.21 53.07 12.88 52.49 12.63 52.58 12.81 52.86 12.81 52.86"/><path class="cls-10" d="M48.32,54.47a8.21,8.21,0,0,0-2.73-2.35c-.69,1.05-1.39,2.09-2.09,3.13a10,10,0,0,1,3.18,2.35A9,9,0,0,0,46.41,55a4.72,4.72,0,0,1,1.91-.49Z"/><path class="cls-2" d="M46.43,57a9.62,9.62,0,0,0-2.54-1.88l1.79-2.67a8.28,8.28,0,0,1,2.15,1.8,4.68,4.68,0,0,0-1.53.48l-.18.09.05.2a8.89,8.89,0,0,1,.26,2Z"/><polygon class="cls-10" points="44.58 54.85 43.5 55.25 44.65 53.54 45.15 53.96 44.58 54.85 44.58 54.85"/><polygon class="cls-11" points="44.44 54.68 44.02 54.84 44.69 53.84 44.88 54 44.44 54.68 44.44 54.68"/><path class="cls-10" d="M46.08,52.51c-.53.84-1,1.5-1.5,2.34a2.72,2.72,0,0,0-1.52-1.27l1.86-3.21,1.23,1c.51.42.29.56-.07,1.11Z"/><path class="cls-2" d="M44.58,54.37a2.93,2.93,0,0,0-1.15-.91L45,50.76l1,.83s.21.18.21.24a2.8,2.8,0,0,1-.33.54l-1.29,2Z"/><polygon class="cls-10" points="44.13 53.02 43.06 53.58 43.84 52.25 44.48 52.47 44.13 53.02 44.13 53.02"/><polygon class="cls-11" points="43.99 52.86 43.59 53.07 43.93 52.49 44.17 52.58 43.99 52.86 43.99 52.86"/><path class="cls-10" d="M31.13,45.45a27.16,27.16,0,0,1,14.09,4.79c.49.36.39.44.07.95-.41.66-.74,1.17-1.16,1.83a28.36,28.36,0,0,0-13-4.37,39.61,39.61,0,0,0-4.75,0A28.24,28.24,0,0,0,12.67,53c-.41-.66-.74-1.17-1.16-1.83-.32-.51-.41-.59.08-.95a27.32,27.32,0,0,1,14.74-4.83c1.57-.06,3.23-.06,4.8,0Z"/><path class="cls-2" d="M44.05,52.67c.34-.54.69-1.07,1-1.62a3,3,0,0,0,.22-.39c0-.06-.19-.18-.23-.21a26.92,26.92,0,0,0-14-4.75,44.63,44.63,0,0,0-4.77,0,27.08,27.08,0,0,0-14.6,4.78,1,1,0,0,0-.24.21,2.22,2.22,0,0,0,.23.39c.34.55.68,1.08,1,1.62q1.39-.81,2.85-1.53a26.63,26.63,0,0,1,10.72-2.78,38.12,38.12,0,0,1,4.78,0A26.84,26.84,0,0,1,41.2,51.14q1.45.72,2.85,1.53Z"/><path class="cls-12" d="M28.86,41v1.13h0a.9.9,0,0,1-1.53.5.73.73,0,0,1-.18-.51.66.66,0,0,1,.5-.58V41h-1l.27-.39a6.68,6.68,0,0,0,.71-3.21,14.65,14.65,0,0,1,.28-2.57l.17-.71.31.66a10,10,0,0,1,.45,3.09,4.3,4.3,0,0,0,.91,2.73l.44.45-.63,0Z"/><path class="cls-13" d="M28.18,34.86c-.44,1.81,0,4.34-1,5.86h.74v1c-.55,0-.58.48-.38.71s1.06.18,1.08-.34V40.73h1c-1.48-1.55-.69-4.3-1.42-5.88Z"/><polygon class="cls-10" points="27.9 40.72 27.91 41.08 28.61 41.08 28.6 40.72 27.9 40.72 27.9 40.72"/><path class="cls-10" d="M28.23,37.31c-.17.94,0,2.25-.41,3,.33,0,.66,0,1,0-.59-.81-.27-2.24-.57-3.06Z"/><path class="cls-8" d="M9.62,48c2.39-1,2-3.47,1.29-6.11-.35,2.64-2.1,1.6-1.29,6.11Z"/><path class="cls-14" d="M9.64,48a2.82,2.82,0,0,0,1.77-2.43,10.11,10.11,0,0,0-.5-3.53,3.73,3.73,0,0,1-.77,1.83c-.52.71-1,1.37-.5,4.13Zm1.82-2.43a2.88,2.88,0,0,1-1.83,2.49h0v0c-.5-2.8,0-3.47.5-4.2a3.72,3.72,0,0,0,.79-1.92h0a10.45,10.45,0,0,1,.53,3.66Z"/><path class="cls-8" d="M9.12,48.1c-2.25.63-3.87-1.42-4.17-4.48,1.63,2.14,2.53.46,4.17,4.48Z"/><path class="cls-14" d="M9.13,48.12a2.82,2.82,0,0,1-.54.1,2.57,2.57,0,0,1-2.09-.74,5,5,0,0,1-1.29-2.33,8.84,8.84,0,0,1-.28-1.53l0,0a3.94,3.94,0,0,0,1.67,1.33c.78.37,1.51.72,2.5,3.16l0,0Zm-.55.05a2.49,2.49,0,0,0,.51-.09c-1-2.4-1.7-2.74-2.47-3.1A3.94,3.94,0,0,1,5,43.7a8,8,0,0,0,.27,1.44,5.09,5.09,0,0,0,1.27,2.31,2.55,2.55,0,0,0,2.05.72Z"/><path class="cls-8" d="M8,43.32c2.51-.73,2.61-3.06,2.32-5.81-.7,2.58-2.51,1.16-2.32,5.81Z"/><path class="cls-14" d="M8,43.29a3,3,0,0,0,2.16-2.12,9.41,9.41,0,0,0,.12-3.52,3.28,3.28,0,0,1-1.1,1.67c-.66.6-1.29,1.16-1.18,4Zm2.21-2.11A3,3,0,0,1,8,43.34H8v0c-.11-2.85.52-3.43,1.2-4a3.24,3.24,0,0,0,1.12-1.77h0a9.59,9.59,0,0,1-.11,3.67Z"/><path class="cls-8" d="M7.52,43.47c-2.69.4-3.11-2.37-3.3-5,1.42,2.21,2.49,1.16,3.3,5Z"/><path class="cls-14" d="M7.52,43.49a2.26,2.26,0,0,1-2.61-1.37,10.68,10.68,0,0,1-.72-3.62l0,0A5.38,5.38,0,0,0,5.68,40c.74.57,1.36,1.05,1.86,3.45v0ZM5,42.1a2.2,2.2,0,0,0,2.53,1.34C7,41.09,6.38,40.61,5.65,40.05a5.47,5.47,0,0,1-1.4-1.46A10.27,10.27,0,0,0,5,42.1Z"/><path class="cls-8" d="M7.29,38.58c2.64-.13,2.92-2.32,3-5.08-.94,2.26-2.72,1.75-3,5.08Z"/><path class="cls-14" d="M7.32,38.56A2.55,2.55,0,0,0,9.73,37a9.43,9.43,0,0,0,.55-3.39,4.8,4.8,0,0,1-1.36,1.71,4.12,4.12,0,0,0-1.6,3.22ZM9.78,37a2.61,2.61,0,0,1-2.49,1.57h0v0a4.12,4.12,0,0,1,1.63-3.27,4.6,4.6,0,0,0,1.39-1.82h.05A10,10,0,0,1,9.78,37Z"/><path class="cls-8" d="M6.79,38.53c-2.56-.37-2.53-2.78-2.08-5.24.71,2.42,2.13,1.3,2.08,5.24Z"/><path class="cls-14" d="M6.79,38.55A2.38,2.38,0,0,1,4.6,36.7a8.1,8.1,0,0,1,.09-3.41h0a3.51,3.51,0,0,0,1,1.73c.56.59,1.08,1.12,1.05,3.52v0ZM4.65,36.69A2.34,2.34,0,0,0,6.77,38.5c0-2.35-.48-2.87-1-3.45a3.65,3.65,0,0,1-1-1.65,8,8,0,0,0-.07,3.29Z"/><path class="cls-8" d="M7.45,33.41c2.72.38,3.35-1.45,3.61-3.7-1.3,1.75-2.56.52-3.61,3.7Z"/><path class="cls-14" d="M7.48,33.39a2.64,2.64,0,0,0,2.68-.86A5.69,5.69,0,0,0,11,29.8a3.3,3.3,0,0,1-1.47,1.07c-.74.33-1.44.64-2.07,2.52Zm2.72-.83a2.68,2.68,0,0,1-2.76.87h0v0c.64-1.92,1.35-2.24,2.11-2.57A3.36,3.36,0,0,0,11,29.69l0,0a5.86,5.86,0,0,1-.88,2.85Z"/><path class="cls-8" d="M7.14,33.5c-2.6-1-1.77-3.58-.74-5.72.1,2.52,1.74,1.91.74,5.72Z"/><path class="cls-14" d="M7.14,33.53a2.39,2.39,0,0,1-1.75-2.45,8.32,8.32,0,0,1,1-3.31h0a3.83,3.83,0,0,0,.57,2c.41.75.78,1.44.17,3.77v0Zm-1.7-2.45a2.35,2.35,0,0,0,1.69,2.39c.59-2.29.23-3-.18-3.7a4,4,0,0,1-.57-1.89,8.33,8.33,0,0,0-.94,3.2Z"/><path class="cls-8" d="M8.68,29.05c2.33.73,3.74-.88,4.38-2.74-1.67,1.42-2.65-.11-4.38,2.74Z"/><path class="cls-14" d="M8.72,29a3,3,0,0,0,2.55-.26A4.59,4.59,0,0,0,13,26.39a3.15,3.15,0,0,1-1.7.7c-.8.14-1.56.27-2.58,1.95Zm2.58-.22a3,3,0,0,1-2.63.26h0v0c1-1.72,1.83-1.86,2.64-2A3.1,3.1,0,0,0,13,26.29l0,0a4.68,4.68,0,0,1-1.78,2.5Z"/><path class="cls-8" d="M8.48,29c-1.44-2-.89-3.2.69-4.57-.57,1.82.54,2.18-.69,4.57Z"/><path class="cls-14" d="M8.46,29a3.18,3.18,0,0,1-.79-2.54,4.05,4.05,0,0,1,1.48-2.06l0,0a3.81,3.81,0,0,0-.12,1.76A4.24,4.24,0,0,1,8.5,29l0,0,0,0Zm-.74-2.53a3.11,3.11,0,0,0,.76,2.47A4.17,4.17,0,0,0,9,26.17a3.73,3.73,0,0,1,.1-1.69,3.9,3.9,0,0,0-1.4,2Z"/><path class="cls-8" d="M11.16,25.24c1.23,1,3.2.31,4.12-1.42-1.86,1.14-2.12-.6-4.12,1.42Z"/><path class="cls-14" d="M11.2,25.24a2,2,0,0,0,.3.2,2.22,2.22,0,0,0,1.72.13,3.48,3.48,0,0,0,1.62-1.12,4.58,4.58,0,0,0,.38-.56,2.46,2.46,0,0,1-1.74.35c-.61-.06-1.17-.11-2.28,1Zm.28.25a2.54,2.54,0,0,1-.34-.23l0,0,0,0c1.14-1.15,1.72-1.09,2.35-1a2.44,2.44,0,0,0,1.78-.39l0,0a3.86,3.86,0,0,1-.43.65,3.49,3.49,0,0,1-1.65,1.14,2.3,2.3,0,0,1-1.75-.13Z"/><path class="cls-8" d="M10.93,25c-.94-1.58-.37-2.43,1.35-3.42-.85,1.71.24,1.26-1.35,3.42Z"/><path class="cls-14" d="M10.9,25a2.08,2.08,0,0,1-.32-2,3.8,3.8,0,0,1,1.69-1.5l0,0a2.85,2.85,0,0,0-.38,1.35c0,.44,0,.81-1,2.08l0,0,0,0Zm-.27-1.94a2,2,0,0,0,.3,1.88c.9-1.23.92-1.6.94-2a2.84,2.84,0,0,1,.35-1.3,3.61,3.61,0,0,0-1.59,1.44Z"/><path class="cls-8" d="M13.87,22.58c1,.89,2.72.74,3.7-.95-1.85.78-1.78-.53-3.7.95Z"/><path class="cls-14" d="M13.91,22.58a1.72,1.72,0,0,0,.32.23,2.1,2.1,0,0,0,1.44.25,2.56,2.56,0,0,0,1.45-.85,3.63,3.63,0,0,0,.39-.53,2.73,2.73,0,0,1-1.59.21c-.51-.06-.95-.12-2,.69Zm.29.28a2.88,2.88,0,0,1-.35-.26l0,0,0,0c1.1-.84,1.55-.79,2.08-.72a2.71,2.71,0,0,0,1.63-.24l0,0a3.58,3.58,0,0,1-.44.6,2.61,2.61,0,0,1-1.48.87,2.22,2.22,0,0,1-1.48-.25Z"/><path class="cls-8" d="M13.75,22.35c-.49-1.78.28-2.46,2.19-3-1.26,1.43-.09,1.28-2.19,3Z"/><path class="cls-14" d="M13.73,22.35a2.1,2.1,0,0,1,.19-2,3.92,3.92,0,0,1,2-1l0,0a3.09,3.09,0,0,0-.72,1.21c-.13.41-.25.77-1.47,1.76l0,0v0ZM14,20.41a2,2,0,0,0-.19,1.89c1.18-.95,1.3-1.3,1.43-1.71a2.89,2.89,0,0,1,.67-1.16,3.67,3.67,0,0,0-1.91,1Z"/><path class="cls-8" d="M16.74,20.7a1.78,1.78,0,0,0,2.83-.22c-1.46.33-1.24-.61-2.83.22Z"/><path class="cls-14" d="M16.78,20.71a1.89,1.89,0,0,0,.2.2,1.46,1.46,0,0,0,1,.36,1.87,1.87,0,0,0,1.17-.43,2.54,2.54,0,0,0,.34-.32,2.11,2.11,0,0,1-1.17-.05,1.69,1.69,0,0,0-1.55.24Zm.16.24a2.39,2.39,0,0,1-.22-.23l0,0h0c.91-.48,1.23-.38,1.61-.26a2.12,2.12,0,0,0,1.22,0l0,0a2.36,2.36,0,0,1-.4.38,2,2,0,0,1-1.2.45,1.65,1.65,0,0,1-1-.38Z"/><path class="cls-8" d="M16.68,20.6c-.19-1.36.45-1.77,1.9-2-1.06.92-.2.93-1.9,2Z"/><path class="cls-14" d="M16.65,20.6A1.53,1.53,0,0,1,17,19.16a2.81,2.81,0,0,1,1.58-.54l0,.05a2.16,2.16,0,0,0-.65.81c-.14.29-.26.54-1.26,1.14l0,0v0ZM17,19.2a1.46,1.46,0,0,0-.33,1.36c.95-.58,1.07-.83,1.21-1.11a2.07,2.07,0,0,1,.6-.77A2.66,2.66,0,0,0,17,19.2Z"/><path class="cls-8" d="M10.85,49.84a23.8,23.8,0,0,1-2.7-19.1c1.52-5,5.39-8.7,11.09-11.35l-.13-.14C13,22,9,25.94,7.53,31.28a25.6,25.6,0,0,0,2.64,18.83c.23.4.92.11.68-.27Z"/><path class="cls-14" d="M10.83,49.86a22.25,22.25,0,0,1-3.36-9.12,23.84,23.84,0,0,1,.66-10,15.72,15.72,0,0,1,4-6.57,24.42,24.42,0,0,1,7.09-4.78l-.1-.1a24.27,24.27,0,0,0-7.5,5,16.1,16.1,0,0,0-4,7,24.2,24.2,0,0,0-.49,9.61,25.4,25.4,0,0,0,3.13,9.2.36.36,0,0,0,.38.17.25.25,0,0,0,.15-.05.31.31,0,0,0,.11-.09.24.24,0,0,0,0-.27ZM7.52,40.73a22.1,22.1,0,0,0,3.35,9.1.27.27,0,0,1,0,.33.47.47,0,0,1-.13.11.38.38,0,0,1-.16,0,.39.39,0,0,1-.43-.19A25.37,25.37,0,0,1,7,40.9a24.11,24.11,0,0,1,.5-9.63,16,16,0,0,1,4.06-7,24.22,24.22,0,0,1,7.53-5.05h0l.14.14,0,0h0a24.36,24.36,0,0,0-7.1,4.79,15.66,15.66,0,0,0-4,6.54,23.92,23.92,0,0,0-.66,10Z"/><path class="cls-8" d="M18.71,19.54c.62-1.36,1.76-1.36,3.08-.7-1.19.33-.94,1.3-3.08.7Z"/><path class="cls-14" d="M18.68,19.53A1.75,1.75,0,0,1,20,18.41a3.06,3.06,0,0,1,1.82.4v.05a2.34,2.34,0,0,0-.85.47c-.43.34-.81.64-2.24.24h0v0ZM20,18.46a1.67,1.67,0,0,0-1.25,1.07c1.38.38,1.75.09,2.17-.24a2.21,2.21,0,0,1,.81-.46A2.9,2.9,0,0,0,20,18.46Z"/><path class="cls-15" d="M38.28,20.36l-.49-.21a5.1,5.1,0,0,0-.83.91.55.55,0,0,0,.26.83c.24.05.13-.25.37-.49l.26.24c.44.36.28-.21.25-.38a2,2,0,0,1,.18-.9Z"/><path class="cls-16" d="M38.28,20.38c-.15-.12-.65-1-.8-1.15.14-.39-.16-.21.28-.36s1.2-.19,1.36,0-.21.18-.32.49a2.37,2.37,0,0,1,.32.13c.52.24,0,.39-.19.44a1.46,1.46,0,0,0-.65.43Z"/><path class="cls-17" d="M35.35,19.51c-.12.46.14.78.59,1,.56,0,1.12-.05,1.42-.82A1.66,1.66,0,0,0,36.61,18c-.68-.12-1.13-.05-1.09.43-.86-.19-1,.72-.17,1.08Z"/><path class="cls-18" d="M38.33,20.38a1.93,1.93,0,0,1-2.39.15.86.86,0,0,0,.68-.63c-.49-.39-.63-.59-.55-.82s.36-.17.82-.15a1.7,1.7,0,0,0-.28-.93c1.22.28,1.62,1.21,1.72,2.38Z"/><path class="cls-2" d="M43.79,24.32l-.51-.4A9.18,9.18,0,0,0,41.75,25c-.5.48-.42,1.07-.13,1.21s.31-.33.74-.6c.06.13.13.28.19.38.37.61.47-.23.52-.48a4.09,4.09,0,0,1,.72-1.22Z"/><path class="cls-19" d="M43.7,24.33,43.28,24l-.22.14a7.27,7.27,0,0,0-1.27.93,1.21,1.21,0,0,0-.25.35.84.84,0,0,0-.08.42.45.45,0,0,0,.11.28.21.21,0,0,0,.08.06c.11.05.17,0,.27-.18a1.52,1.52,0,0,1,.4-.41l.06,0,0,.06,0,.08a2.85,2.85,0,0,0,.16.3c.1.16.16.2.19.18s.15-.35.19-.53,0-.08,0-.11a2.58,2.58,0,0,1,.5-.92c.06-.09.13-.18.19-.28Zm-.38-.45.51.39,0,0,0,.05-.23.33a2.48,2.48,0,0,0-.48.87.58.58,0,0,1,0,.1c0,.21-.1.53-.24.62s-.22,0-.37-.22c-.06-.09-.11-.21-.17-.32h0a1.39,1.39,0,0,0-.31.34c-.13.18-.22.31-.42.22a.34.34,0,0,1-.12-.09.57.57,0,0,1-.15-.36,1,1,0,0,1,.09-.48A1.36,1.36,0,0,1,41.7,25,7.94,7.94,0,0,1,43,24l.26-.16,0,0,0,0Z"/><path class="cls-2" d="M43.77,24.35c-.12-.21-.27-1.57-.39-1.78.38-.52-.09-.34.54-.45s1.62,0,1.71.32-.37.2-.67.62a3,3,0,0,1,.34.25c.52.45-.24.54-.48.57a2.54,2.54,0,0,0-1,.47Z"/><path class="cls-19" d="M43.71,24.38a5.23,5.23,0,0,1-.2-.91,5.07,5.07,0,0,0-.18-.87l0,0,0,0c.15-.2.16-.28.16-.32s0-.06,0-.08,0,0,.12,0l.26,0a3.42,3.42,0,0,1,1.15,0c.32.06.58.17.63.35s-.06.27-.24.35a1.28,1.28,0,0,0-.4.27h0l.28.21c.23.2.24.35.15.46s-.49.2-.65.22h0a1.85,1.85,0,0,0-.79.31l-.24.15-.06,0,0-.06Zm-.07-.93a6.35,6.35,0,0,0,.16.81l.18-.1a1.87,1.87,0,0,1,.84-.34h0c.14,0,.46-.06.56-.18s0-.15-.13-.29l-.27-.2h0l-.07,0-.05,0,0-.05a1.06,1.06,0,0,1,.48-.36c.13-.06.21-.1.18-.21s-.25-.2-.53-.26a3.7,3.7,0,0,0-1.1,0l-.27,0h-.05a.78.78,0,0,1-.16.35,6,6,0,0,1,.18.87Zm0-1.22Z"/><path class="cls-2" d="M40.56,22.5a1.12,1.12,0,0,0,.19,1.56A2.06,2.06,0,0,0,43,23.22a2.29,2.29,0,0,0,0-2.57c-.79-.31-1.4-.31-1.6.38-1-.46-1.61.8-.79,1.47Z"/><path class="cls-7" d="M40.61,22.54a1.12,1.12,0,0,0-.21.8,1.28,1.28,0,0,0,.38.66h0a2,2,0,0,0,2.12-.82,2.17,2.17,0,0,0,.38-1.25,2.66,2.66,0,0,0-.38-1.23,2,2,0,0,0-1-.18h0a.67.67,0,0,0-.53.53l0,.07-.07,0a.69.69,0,0,0-1,.24.89.89,0,0,0-.11.36.88.88,0,0,0,.35.76l0,0,0,.05Zm-.33.82a1.22,1.22,0,0,1,.19-.85,1,1,0,0,1-.35-.83.94.94,0,0,1,.13-.41.72.72,0,0,1,.3-.3.83.83,0,0,1,.76,0,.75.75,0,0,1,.61-.54h0a2.09,2.09,0,0,1,1.06.19l0,0a2.86,2.86,0,0,1,.41,1.31,2.33,2.33,0,0,1-.4,1.32h0a2.07,2.07,0,0,1-2.24.87h0l0,0a1.36,1.36,0,0,1-.43-.74Z"/><path class="cls-20" d="M43.84,24.36a2.28,2.28,0,0,1-3.09-.3,1.55,1.55,0,0,0,1.19-.73c-.4-.65-.48-1-.26-1.27s.56-.17,1.12,0A2.63,2.63,0,0,0,43,20.65c1.38.66,1.38,2.05.89,3.71Z"/><path class="cls-7" d="M43.87,24.41a2.83,2.83,0,0,1-1.7.46,2.36,2.36,0,0,1-1.47-.77L40.62,24l.12,0a1.5,1.5,0,0,0,.63-.19,1.46,1.46,0,0,0,.49-.47,3.11,3.11,0,0,1-.35-.75.69.69,0,0,1,.12-.56c.21-.28.55-.21,1.07-.09h.06a1.89,1.89,0,0,0,.14-.59,4.12,4.12,0,0,0,0-.7v-.1l.1,0a2,2,0,0,1,1.18,1.53,5.17,5.17,0,0,1-.26,2.26l0,0Zm-1.69.33a2.68,2.68,0,0,0,1.6-.42A5,5,0,0,0,44,22.14a1.84,1.84,0,0,0-1-1.38,4,4,0,0,1,0,.6,1.94,1.94,0,0,1-.17.68l0,.05h-.05l-.12,0c-.47-.1-.77-.17-.93.05a.48.48,0,0,0-.1.45,2.45,2.45,0,0,0,.35.74l0,0,0,0a1.6,1.6,0,0,1-.55.55,1.77,1.77,0,0,1-.56.19,2.14,2.14,0,0,0,1.3.64Z"/><path class="cls-2" d="M46.53,27.41l-.46-.51a7.26,7.26,0,0,0-1.6.74.77.77,0,0,0-.22,1.18c.26.19.33-.25.77-.42l.16.43c.31.68.48-.13.55-.36a3.34,3.34,0,0,1,.8-1.06Z"/><path class="cls-19" d="M46.45,27.41l-.4-.44-.23.09a5.85,5.85,0,0,0-1.31.63,1,1,0,0,0-.23.22.85.85,0,0,0-.16.43.65.65,0,0,0,.09.35.6.6,0,0,0,.08.08c.1.07.17,0,.27-.11a1.19,1.19,0,0,1,.44-.32l.06,0,0,.06,0,.08h0c0,.13.09.25.13.35s.15.25.19.23.16-.31.21-.48l0-.1a2.22,2.22,0,0,1,.56-.81h0a2.39,2.39,0,0,0,.22-.23Zm-.33-.56.46.52,0,0,0,0c-.08.1-.17.19-.25.28h0a2,2,0,0,0-.54.76.62.62,0,0,0,0,.1c0,.19-.14.49-.28.55s-.23,0-.35-.29A2.83,2.83,0,0,1,45,28.5h0v0a1.09,1.09,0,0,0-.32.27c-.15.15-.25.26-.44.12l-.11-.11a.66.66,0,0,1-.11-.43.93.93,0,0,1,.18-.5.87.87,0,0,1,.26-.24,5.72,5.72,0,0,1,1.34-.65l.27-.1,0,0,0,0Z"/><path class="cls-2" d="M46.51,27.44c-.1-.24-.13-1.64-.23-1.87.41-.43-.06-.36.57-.33s1.58.38,1.65.72-.38.12-.71.46l.31.33c.48.58-.28.49-.51.47a2.25,2.25,0,0,0-1.08.22Z"/><path class="cls-19" d="M46.45,27.46a6.28,6.28,0,0,1-.12-.95,4.88,4.88,0,0,0-.11-.92v0l0,0a.52.52,0,0,0,.18-.28.08.08,0,0,1,0-.08h0a.27.27,0,0,1,.13,0l.26,0a3.89,3.89,0,0,1,1.13.28c.31.14.55.31.58.49s-.09.26-.28.3h0a.83.83,0,0,0-.4.18h0l.26.27c.21.26.2.41.09.5s-.49.09-.65.07h0a1.71,1.71,0,0,0-.8.13l-.25.09-.06,0,0-.06Zm0-1c0,.35.06.7.09.86l.19-.07a1.66,1.66,0,0,1,.85-.13h0c.15,0,.46,0,.56-.05s0-.13-.11-.32l-.25-.26-.06-.06,0,0,0-.05a.87.87,0,0,1,.51-.25h0c.13,0,.21-.05.19-.16s-.24-.27-.52-.39a3.24,3.24,0,0,0-1.07-.27l-.27,0h0a.63.63,0,0,1-.19.3,6,6,0,0,1,.11.92Z"/><path class="cls-2" d="M43.52,24.83a1.18,1.18,0,0,0,.06,1.6,1.81,1.81,0,0,0,2.24-.32,2.31,2.31,0,0,0,.2-2.56c-.75-.51-1.35-.65-1.61,0-.92-.68-1.64.43-.89,1.29Z"/><path class="cls-7" d="M43.56,24.87a1,1,0,0,0-.26.75,1.56,1.56,0,0,0,.32.76h0a1.75,1.75,0,0,0,2.14-.32,1.88,1.88,0,0,0,.47-1.15A3,3,0,0,0,46,23.59a2.21,2.21,0,0,0-.94-.41.53.53,0,0,0-.56.39l0,.07-.07,0a.74.74,0,0,0-.68-.18.56.56,0,0,0-.26.17.6.6,0,0,0-.14.3,1,1,0,0,0,.27.9l0,0,0,0Zm-.39.77a1.14,1.14,0,0,1,.26-.81,1.13,1.13,0,0,1-.26-1,.64.64,0,0,1,.17-.35.66.66,0,0,1,.31-.21.83.83,0,0,1,.73.15.63.63,0,0,1,.65-.4,2.34,2.34,0,0,1,1,.44l0,0a3.2,3.2,0,0,1,.29,1.4,2.14,2.14,0,0,1-.5,1.24h0a1.85,1.85,0,0,1-2.27.34h0l0,0a1.68,1.68,0,0,1-.36-.83Z"/><path class="cls-20" d="M46.58,27.46a2.4,2.4,0,0,1-3-1A1.26,1.26,0,0,0,44.8,26c-.34-.74-.39-1.07-.14-1.33s.55,0,1.1.23A2.73,2.73,0,0,0,46,23.55c1.29,1,1.18,2.37.56,3.91Z"/><path class="cls-7" d="M46.6,27.52a2.6,2.6,0,0,1-1.71.06,2.9,2.9,0,0,1-1.37-1.11l-.08-.12.14,0a1.36,1.36,0,0,0,.64-.05,1.17,1.17,0,0,0,.51-.35,2.66,2.66,0,0,1-.28-.83.6.6,0,0,1,.16-.53c.24-.24.56-.08,1.06.16h0l.06,0a1.62,1.62,0,0,0,.18-.55,5.12,5.12,0,0,0,0-.69v-.13l.1.07a2.46,2.46,0,0,1,1,1.8,5,5,0,0,1-.44,2.2v0Zm-1.67-.06a2.46,2.46,0,0,0,1.6-.05A4.7,4.7,0,0,0,47,25.3a2.26,2.26,0,0,0-.87-1.62,5.22,5.22,0,0,1,0,.58,1.57,1.57,0,0,1-.22.65l0,.05-.05,0-.11-.05h0c-.45-.22-.75-.35-.92-.18a.51.51,0,0,0-.13.43,3.3,3.3,0,0,0,.29.83v0l0,0a1.27,1.27,0,0,1-.59.42,1.46,1.46,0,0,1-.55.07,2.64,2.64,0,0,0,1.22.95Z"/><path class="cls-2" d="M47.8,30.5l-.36-.6a7.57,7.57,0,0,0-1.7.43.77.77,0,0,0-.44,1.13c.22.23.37-.19.83-.28,0,.16,0,.32.08.45.18.74.49,0,.61-.25a3.18,3.18,0,0,1,1-.88Z"/><path class="cls-19" d="M47.72,30.48,47.41,30l-.24.05a5.75,5.75,0,0,0-1.41.37,1.3,1.3,0,0,0-.26.17.84.84,0,0,0-.24.4h0a.62.62,0,0,0,0,.36.31.31,0,0,0,.07.09c.08.09.16,0,.28-.05a1.12,1.12,0,0,1,.49-.24h.07v.15c0,.12,0,.25.06.36h0c0,.2.1.27.14.26h0c.1,0,.22-.27.3-.43a.93.93,0,0,0,0-.1,2.1,2.1,0,0,1,.71-.68l.25-.19Zm-.23-.61.37.59,0,.05,0,0-.3.22a2.05,2.05,0,0,0-.67.64,1,1,0,0,0,0,.1c-.09.18-.23.45-.39.49h0c-.11,0-.22-.05-.29-.35h0c0-.12,0-.25-.07-.37v0a1,1,0,0,0-.37.2c-.18.12-.3.21-.46,0a.57.57,0,0,1-.08-.13.65.65,0,0,1,0-.44h0a1,1,0,0,1,.27-.46,1.1,1.1,0,0,1,.3-.19,6,6,0,0,1,1.44-.39l.28-.05h0l0,0Z"/><path class="cls-2" d="M47.77,30.52c-.05-.25.18-1.63.13-1.88.48-.35,0-.37.62-.22s1.48.67,1.48,1-.39,0-.78.32c.08.13.18.26.24.38.37.65-.36.43-.59.36a2.28,2.28,0,0,0-1.1,0Z"/><path class="cls-19" d="M47.71,30.53a5.61,5.61,0,0,1,.06-1,5.61,5.61,0,0,0,.07-.92v0l0,0c.19-.13.22-.21.23-.24s0-.05.06-.07h0s.06,0,.13,0l.25.07a3.67,3.67,0,0,1,1,.49c.28.19.49.4.49.59s-.14.24-.34.24a.88.88,0,0,0-.42.1h0l.2.32c.16.29.12.44,0,.51s-.5,0-.66-.05h0a1.68,1.68,0,0,0-.8,0l-.27,0h-.06v-.06Zm.19-1a7.29,7.29,0,0,0-.07.87l.2,0a1.68,1.68,0,0,1,.86,0h0c.14,0,.44.13.56.07s.06-.13-.05-.34-.13-.2-.2-.3l-.05-.08,0-.05,0,0a.9.9,0,0,1,.55-.15c.13,0,.21,0,.21-.12s-.18-.32-.43-.49a3.35,3.35,0,0,0-1-.46l-.26-.08h0a.61.61,0,0,1-.24.26,8,8,0,0,1-.07.92Z"/><path class="cls-2" d="M45.32,27.4A1.18,1.18,0,0,0,45.08,29a1.82,1.82,0,0,0,2.26.11A2.33,2.33,0,0,0,48,26.6c-.65-.63-1.21-.88-1.58-.3-.78-.84-1.69.11-1.12,1.1Z"/><path class="cls-7" d="M45.36,27.45a1,1,0,0,0-.41.69,1.62,1.62,0,0,0,.18.8h0A1.76,1.76,0,0,0,47.3,29,1.93,1.93,0,0,0,48,28a3,3,0,0,0,0-1.36,2.1,2.1,0,0,0-.85-.57.52.52,0,0,0-.62.28l0,.06-.06-.06a.79.79,0,0,0-.64-.3.58.58,0,0,0-.28.12.79.79,0,0,0-.2.27,1,1,0,0,0,.1.94l0,0,0,0Zm-.53.67a1.08,1.08,0,0,1,.41-.74,1.17,1.17,0,0,1-.09-1,.87.87,0,0,1,.24-.32.64.64,0,0,1,.35-.14.83.83,0,0,1,.69.28.64.64,0,0,1,.71-.27,2.33,2.33,0,0,1,.92.63l0,0a3.15,3.15,0,0,1,0,1.43,2.08,2.08,0,0,1-.72,1.12h0a1.86,1.86,0,0,1-2.3-.08l0,0,0,0a1.75,1.75,0,0,1-.19-.89Z"/><path class="cls-20" d="M47.84,30.55A2.41,2.41,0,0,1,45.08,29a1.27,1.27,0,0,0,1.27-.28c-.2-.8-.17-1.06.12-1.26s.52-.1,1,.25A2.1,2.1,0,0,0,48,26.6a2.94,2.94,0,0,1-.18,3.95Z"/><path class="cls-7" d="M47.85,30.62a2.64,2.64,0,0,1-1.7-.27A2.83,2.83,0,0,1,45,29L45,28.88l.14,0a1.17,1.17,0,0,0,.61,0,1.4,1.4,0,0,0,.57-.29,2.42,2.42,0,0,1-.11-.83.57.57,0,0,1,.27-.45.53.53,0,0,1,.46-.09,1.72,1.72,0,0,1,.56.3,1.76,1.76,0,0,0,.3-.43,1.8,1.8,0,0,0,.19-.58l0-.13.08.1a2.65,2.65,0,0,1,.7,2,3.38,3.38,0,0,1-.88,2.09l0,0Zm-1.63-.38a2.42,2.42,0,0,0,1.58.25,3.3,3.3,0,0,0,.84-2,2.58,2.58,0,0,0-.59-1.77,1.66,1.66,0,0,1-.18.49,2.06,2.06,0,0,1-.35.5l0,0,0,0a1.72,1.72,0,0,0-.57-.31.38.38,0,0,0-.36.06.46.46,0,0,0-.22.36,2.55,2.55,0,0,0,.12.83v0l0,0a1.52,1.52,0,0,1-.65.34,1.23,1.23,0,0,1-.54,0,2.5,2.5,0,0,0,1,1.16Z"/><path class="cls-2" d="M48.94,34.25l-.25-.59a7.57,7.57,0,0,0-1.77.2c-.62.17-.81.72-.63,1s.4-.13.88-.16a3.08,3.08,0,0,0,0,.43c0,.7.49,0,.64-.16a3.76,3.76,0,0,1,1.13-.7Z"/><path class="cls-19" d="M48.86,34.22l-.21-.5-.25,0a6,6,0,0,0-1.46.18,1,1,0,0,0-.34.16.8.8,0,0,0-.27.32.57.57,0,0,0,0,.31.19.19,0,0,0,0,.09c.07.1.17.05.3,0a1.33,1.33,0,0,1,.52-.16h.07v.14c0,.12,0,.24,0,.35s.05.25.09.25.27-.23.38-.37l.06-.08a2.28,2.28,0,0,1,.82-.55l.28-.14Zm-.11-.59.25.59,0,.05-.05,0-.34.17a2.22,2.22,0,0,0-.78.52l-.06.08c-.12.16-.31.4-.47.41s-.21-.08-.23-.37v-.35h0a1.34,1.34,0,0,0-.4.15c-.2.09-.33.16-.46,0a.38.38,0,0,1-.06-.13.63.63,0,0,1,0-.4.8.8,0,0,1,.3-.37,1.11,1.11,0,0,1,.38-.18,6.42,6.42,0,0,1,1.5-.19h.33l0,0Z"/><path class="cls-2" d="M48.91,34.27c0-.24.46-1.49.46-1.73.54-.26.07-.33.65-.12s1.36.78,1.3,1.11-.41,0-.84.2c.06.13.13.26.18.38.24.65-.44.35-.65.27a2.4,2.4,0,0,0-1.1-.11Z"/><path class="cls-19" d="M48.85,34.27a4.75,4.75,0,0,1,.23-.88,5.87,5.87,0,0,0,.22-.85v0h0c.21-.11.25-.17.27-.2s0,0,.07-.06a.31.31,0,0,1,.12,0l.24.09a3.57,3.57,0,0,1,1,.57c.24.21.41.44.38.61s-.18.2-.37.19a.85.85,0,0,0-.44,0h0c0,.11.11.22.15.32.11.29.05.42-.09.47s-.49-.06-.64-.12h0a1.89,1.89,0,0,0-.8-.11h-.33v-.06Zm.35-.85c-.1.32-.19.63-.22.78h.2a1.73,1.73,0,0,1,.85.12h0a1,1,0,0,0,.55.12c.06,0,.08-.11,0-.31l-.14-.3h0l0-.07,0-.06.06,0A1.1,1.1,0,0,1,51,33.6c.13,0,.21,0,.23-.08s-.12-.31-.34-.49a3,3,0,0,0-.92-.55l-.24-.1h0a.76.76,0,0,1-.28.21,8.3,8.3,0,0,1-.23.84Z"/><path class="cls-2" d="M47,31.1a1.1,1.1,0,0,0-.52,1.44,1.92,1.92,0,0,0,2.23.36,2.21,2.21,0,0,0,1.11-2.22c-.53-.66-1.05-.95-1.52-.46-.63-.87-1.7-.09-1.3.88Z"/><path class="cls-7" d="M47.05,31.16a1,1,0,0,0-.52.59,1.3,1.3,0,0,0,0,.75h0a1.84,1.84,0,0,0,2.14.34,2,2,0,0,0,.85-.89,2.62,2.62,0,0,0,.21-1.24,1.87,1.87,0,0,0-.74-.63.57.57,0,0,0-.66.18l-.06.06,0-.06a.73.73,0,0,0-.59-.35.62.62,0,0,0-.32.09.61.61,0,0,0-.24.24.9.9,0,0,0,0,.84l0,.05-.05,0Zm-.65.55a1.12,1.12,0,0,1,.54-.63,1,1,0,0,1,.07-.91.86.86,0,0,1,.29-.28.7.7,0,0,1,.38-.11.83.83,0,0,1,.65.35.66.66,0,0,1,.75-.17,2.09,2.09,0,0,1,.8.68l0,0A2.85,2.85,0,0,1,49.67,32a2.11,2.11,0,0,1-.91.94h0a1.94,1.94,0,0,1-2.27-.34l0,0,0,0a1.52,1.52,0,0,1,0-.84Z"/><path class="cls-20" d="M49,34.3a2.27,2.27,0,0,1-2.47-1.76,1.41,1.41,0,0,0,1.32,0c-.06-.76,0-1.06.34-1.22s.54.13,1,.51a2.58,2.58,0,0,0,.72-1.1A2.47,2.47,0,0,1,49,34.3Z"/><path class="cls-7" d="M49,34.37a2.66,2.66,0,0,1-1.63-.44,2.45,2.45,0,0,1-.9-1.38l0-.12.12,0a1.69,1.69,0,0,0,.61.14,1.31,1.31,0,0,0,.61-.17,2.44,2.44,0,0,1,0-.81.57.57,0,0,1,.34-.42c.3-.15.55.08.94.44h0l0,0a1.73,1.73,0,0,0,.36-.44,3.73,3.73,0,0,0,.3-.6l0-.11.07.09.07.12h0a2.37,2.37,0,0,1,.34,1.88,2.76,2.76,0,0,1-1.16,1.62l-.14.1Zm-1.56-.55a2.48,2.48,0,0,0,1.54.42l.12-.08a2.72,2.72,0,0,0,1.11-1.55,2.29,2.29,0,0,0-.32-1.78h0v0a4.2,4.2,0,0,1-.26.52,1.76,1.76,0,0,1-.44.5l0,0,0,0L49,31.75h0c-.35-.32-.58-.53-.8-.42a.46.46,0,0,0-.28.34,2.77,2.77,0,0,0,0,.81v0l0,0a1.4,1.4,0,0,1-.71.2,1.47,1.47,0,0,1-.54-.1,2.2,2.2,0,0,0,.81,1.18Z"/><path class="cls-2" d="M49.53,37.65l-.17-.55a7.44,7.44,0,0,0-1.7,0c-.61.08-.86.55-.71.8s.39-.07.84,0c0,.14,0,.27,0,.39,0,.62.47.07.63-.07a3.53,3.53,0,0,1,1.16-.49Z"/><path class="cls-19" d="M49.45,37.61l-.14-.45-.23,0a6.65,6.65,0,0,0-1.41,0,1.12,1.12,0,0,0-.39.12.74.74,0,0,0-.25.25.39.39,0,0,0-.06.25.16.16,0,0,0,0,.09c0,.08.15.06.28,0a1.54,1.54,0,0,1,.52-.08h.07v.06l0,.08c0,.1,0,.21,0,.3s0,.22,0,.23.28-.17.4-.28l.07-.07a2.16,2.16,0,0,1,.84-.39c.09,0,.19-.05.28-.09Zm0-.53.17.55,0,.06-.06,0-.34.11a2.18,2.18,0,0,0-.8.37l-.06.06c-.14.13-.35.32-.5.31s-.19-.1-.17-.36a1.88,1.88,0,0,1,0-.31h0a1.44,1.44,0,0,0-.4.07c-.19.06-.33.11-.43-.07a.58.58,0,0,1,0-.14.6.6,0,0,1,.08-.33.84.84,0,0,1,.3-.29,1.55,1.55,0,0,1,.43-.14,6.92,6.92,0,0,1,1.44,0l.27,0h0v0Z"/><path class="cls-2" d="M49.5,37.66c0-.21.61-1.26.63-1.48.55-.17.11-.28.63,0s1.2.87,1.1,1.15-.38,0-.82.08a3.17,3.17,0,0,1,.13.36c.15.6-.46.26-.65.16a2.5,2.5,0,0,0-1-.24Z"/><path class="cls-19" d="M49.43,37.66a4.48,4.48,0,0,1,.33-.76,5.1,5.1,0,0,0,.31-.72v0l0,0a.54.54,0,0,0,.28-.14h0s0,0,.06,0a.21.21,0,0,1,.11,0l.22.12a3.26,3.26,0,0,1,.84.62c.21.22.35.44.29.6s-.19.16-.37.12a1.14,1.14,0,0,0-.42,0h0c0,.11.07.21.1.3h0c.07.27,0,.39-.13.42s-.47-.11-.6-.18h0a1.61,1.61,0,0,0-.75-.19l-.25,0h-.06v-.06Zm.44-.71c-.13.26-.25.53-.3.66l.19,0a1.87,1.87,0,0,1,.79.21h0c.12.06.38.2.51.17s.08-.09,0-.26h0c0-.09-.06-.19-.1-.29l0-.07,0-.06.07,0a1,1,0,0,1,.54,0c.12,0,.2,0,.23,0s-.08-.28-.26-.47a3,3,0,0,0-.81-.6l-.22-.12,0,0a.56.56,0,0,1-.29.16,6.61,6.61,0,0,1-.32.72Z"/><path class="cls-2" d="M48.08,34.61a1,1,0,0,0-.66,1.22,1.9,1.9,0,0,0,2.07.59,2,2,0,0,0,1.31-1.84c-.42-.65-.87-1-1.38-.59a.74.74,0,0,0-1.34.62Z"/><path class="cls-7" d="M48.1,34.67a1,1,0,0,0-.56.46,1.14,1.14,0,0,0-.06.67h0a1.81,1.81,0,0,0,2.89-.13,2.16,2.16,0,0,0,.36-1.07,1.87,1.87,0,0,0-.63-.65.57.57,0,0,0-.65.09l-.06,0,0-.06a.72.72,0,0,0-.54-.39.65.65,0,0,0-.31,0,.69.69,0,0,0-.25.2.79.79,0,0,0-.13.72l0,0-.06,0Zm-.67.41a1,1,0,0,1,.57-.5.88.88,0,0,1,.17-.78.76.76,0,0,1,.3-.23.68.68,0,0,1,.37-.06.79.79,0,0,1,.6.39.68.68,0,0,1,.73-.06,1.87,1.87,0,0,1,.68.71v0a2.31,2.31,0,0,1-.37,1.16,2,2,0,0,1-1,.73h0a1.94,1.94,0,0,1-2.11-.58h0l0,0,0,0a1.21,1.21,0,0,1,.07-.76Z"/><path class="cls-20" d="M49.55,37.7a2.14,2.14,0,0,1-2.13-1.87,1.37,1.37,0,0,0,1.25.11c0-.67.15-.94.47-1s.49.18.85.57a2.33,2.33,0,0,0,.81-.89c.68,1.21,0,2.21-1.25,3.12Z"/><path class="cls-7" d="M49.54,37.77a2.69,2.69,0,0,1-1.5-.59,2.22,2.22,0,0,1-.68-1.34l0-.13.11.06A1.35,1.35,0,0,0,48,36a1.23,1.23,0,0,0,.59-.07,2.2,2.2,0,0,1,.13-.72.58.58,0,0,1,.38-.34c.31-.09.52.15.84.51l0,0a1.61,1.61,0,0,0,.4-.34h0a3.7,3.7,0,0,0,.35-.5l0-.1.06.1a1.76,1.76,0,0,1,.08,1.73,4.43,4.43,0,0,1-1.36,1.48Zm-1.41-.69a2.49,2.49,0,0,0,1.4.56,4.26,4.26,0,0,0,1.3-1.42,1.65,1.65,0,0,0,0-1.51,4.56,4.56,0,0,1-.31.42h0a1.64,1.64,0,0,1-.47.4l-.05,0,0,0-.07-.08c-.3-.33-.49-.54-.71-.48a.47.47,0,0,0-.3.27,2.25,2.25,0,0,0-.12.72v0h0a1.47,1.47,0,0,1-.7.1,1.73,1.73,0,0,1-.49-.15,2,2,0,0,0,.62,1.13Z"/><path class="cls-2" d="M49.34,41c0-.2-.05-.35-.08-.54a8.51,8.51,0,0,0-1.67-.33c-.61,0-.93.35-.82.61s.39,0,.84.12a3.3,3.3,0,0,0-.11.34c-.14.58.44.16.63.05A3.73,3.73,0,0,1,49.34,41Z"/><path class="cls-19" d="M49.27,41l-.06-.44L49,40.47a6.56,6.56,0,0,0-1.39-.26,1.17,1.17,0,0,0-.44.06.7.7,0,0,0-.25.18.28.28,0,0,0-.09.2.15.15,0,0,0,0,.09c0,.09.13.08.27.06a1.56,1.56,0,0,1,.52,0h.07l0,.07,0,.06c0,.1-.06.19-.08.28s0,.2,0,.21.3-.1.44-.18l.08-.05A2.25,2.25,0,0,1,49,41l.28,0Zm0-.5.09.54v.06h-.07l-.35.05a2.12,2.12,0,0,0-.84.2l-.08,0a.94.94,0,0,1-.53.21c-.11,0-.17-.13-.12-.37l.09-.28a1.33,1.33,0,0,0-.4,0c-.2,0-.34,0-.41-.14a.4.4,0,0,1,0-.15.5.5,0,0,1,.12-.27.68.68,0,0,1,.3-.21,1.07,1.07,0,0,1,.5-.08,7.47,7.47,0,0,1,1.41.27l.27.06h0v0Z"/><path class="cls-2" d="M49.31,41c.06-.2.8-1.07.86-1.26.56-.07.15-.25.62.08s1.05,1,.91,1.25-.37-.12-.82-.07c0,.12,0,.25.06.36.06.58-.49.16-.66,0a2.51,2.51,0,0,0-1-.39Z"/><path class="cls-19" d="M49.25,41a3.3,3.3,0,0,1,.44-.65,5.8,5.8,0,0,0,.42-.61v0h0a.54.54,0,0,0,.3-.08h0a.09.09,0,0,1,.07,0h0l.1.06.2.14a3.37,3.37,0,0,1,.73.73c.17.24.27.47.19.61s-.21.12-.38,0a1.18,1.18,0,0,0-.41-.09c0,.1,0,.2,0,.29h0c0,.26-.06.36-.19.37h0c-.18,0-.45-.18-.57-.27h0a1.68,1.68,0,0,0-.7-.31l-.25-.07-.06,0,0-.06Zm.54-.58a6.09,6.09,0,0,0-.39.56l.17,0a1.94,1.94,0,0,1,.75.34h0c.11.08.35.27.48.25h0c.06,0,.09-.06.07-.23h0c0-.08,0-.18-.05-.28V41l0-.07h.07a1.05,1.05,0,0,1,.54.09c.11,0,.19.08.23,0s0-.27-.18-.48a3.26,3.26,0,0,0-.7-.69l-.2-.15,0,0a.7.7,0,0,1-.32.09,4.89,4.89,0,0,1-.42.61Z"/><path class="cls-2" d="M48.39,38a.89.89,0,0,0-.84,1,2,2,0,0,0,2,.9,1.83,1.83,0,0,0,1.58-1.47c-.32-.68-.71-1.06-1.27-.79a.73.73,0,0,0-1.42.35Z"/><path class="cls-7" d="M48.4,38a.92.92,0,0,0-.63.32,1.05,1.05,0,0,0-.16.6h0a1.91,1.91,0,0,0,1.87.86,1.78,1.78,0,0,0,1-.48A2,2,0,0,0,51,38.4a1.81,1.81,0,0,0-.51-.7.64.64,0,0,0-.67,0l-.06,0,0-.06a.7.7,0,0,0-.49-.45h0a.58.58,0,0,0-.32,0,.76.76,0,0,0-.28.15.71.71,0,0,0-.21.62V38Zm-.73.25a1,1,0,0,1,.65-.37.79.79,0,0,1,.26-.66.72.72,0,0,1,.33-.18.81.81,0,0,1,.38,0h0a.87.87,0,0,1,.55.47.72.72,0,0,1,.73.08,1.83,1.83,0,0,1,.56.77v0a2.16,2.16,0,0,1-.56,1,2,2,0,0,1-1.07.51h0a2,2,0,0,1-2-.91l0,0v0a1.08,1.08,0,0,1,.18-.7Z"/><path class="cls-20" d="M49.35,41.07a2.11,2.11,0,0,1-1.8-2.1,1.47,1.47,0,0,0,1.22.32c.14-.62.28-.85.62-.88s.46.25.74.67a2.2,2.2,0,0,0,.95-.68c.47,1.23-.38,2-1.73,2.67Z"/><path class="cls-7" d="M49.33,41.13a2.66,2.66,0,0,1-1.37-.8A2,2,0,0,1,47.49,39v-.13l.1.08a1.8,1.8,0,0,0,.53.28,1.44,1.44,0,0,0,.59,0,2.42,2.42,0,0,1,.24-.65.55.55,0,0,1,.43-.24c.31,0,.48.22.75.61l0,0a2,2,0,0,0,.45-.25,4,4,0,0,0,.42-.41l.07-.07,0,.09A1.61,1.61,0,0,1,51,40a4.16,4.16,0,0,1-1.57,1.13Zm-1.28-.88a2.61,2.61,0,0,0,1.3.75,4.06,4.06,0,0,0,1.5-1.08,1.43,1.43,0,0,0,.2-1.4,3,3,0,0,1-.37.34,1.58,1.58,0,0,1-.53.28l0,0,0,0L50,39c-.24-.35-.39-.58-.62-.56a.42.42,0,0,0-.34.2,1.89,1.89,0,0,0-.23.64v0h0a1.48,1.48,0,0,1-.7,0,1.65,1.65,0,0,1-.46-.23,1.91,1.91,0,0,0,.43,1.16Z"/><path class="cls-2" d="M48.09,45c0-.23.06-.4.1-.63a11,11,0,0,0-1.74-1c-.67-.26-1.16,0-1.14.37s.44.15.89.44a2.29,2.29,0,0,0-.24.33c-.36.57.44.33.68.29a4.07,4.07,0,0,1,1.45.18Z"/><path class="cls-19" d="M48,44.91l.09-.52-.24-.15a8.5,8.5,0,0,0-1.45-.8,1.22,1.22,0,0,0-.54-.09.68.68,0,0,0-.33.1.42.42,0,0,0-.17.18.43.43,0,0,0,0,.11c0,.12.13.15.3.18a1.83,1.83,0,0,1,.57.21l.06,0,0,0,0,.07c-.07.09-.14.18-.19.26s-.1.23-.06.25.39,0,.57,0l.11,0h0a2.74,2.74,0,0,1,1.06.1l.34.07Zm.22-.54-.1.63v.06h-.07L47.66,45a2.69,2.69,0,0,0-1-.09h0l-.1,0a1.07,1.07,0,0,1-.66,0c-.11-.06-.13-.19,0-.43.06-.08.13-.18.21-.27h0a1.69,1.69,0,0,0-.47-.15c-.22,0-.38-.08-.39-.3a.29.29,0,0,1,0-.16.53.53,0,0,1,.22-.25.94.94,0,0,1,.39-.12,1.51,1.51,0,0,1,.6.1,8.12,8.12,0,0,1,1.47.82l.28.17,0,0v0Z"/><path class="cls-2" d="M48,45c.14-.19,1.28-.86,1.42-1,.65.14.25-.22.66.32s.8,1.48.56,1.69-.37-.26-.89-.37c0,.14,0,.29-.06.41-.14.66-.6,0-.75-.21A2.91,2.91,0,0,0,48,45Z"/><path class="cls-19" d="M48,44.94a5,5,0,0,1,.73-.54,4.35,4.35,0,0,0,.68-.51l0,0h0c.26.06.33,0,.37,0h0a.11.11,0,0,1,.08,0h0A.3.3,0,0,1,50,44l.16.23h0a3.79,3.79,0,0,1,.55,1.06c.11.32.13.61,0,.72s-.27,0-.44-.08a1.22,1.22,0,0,0-.44-.26h0a3.18,3.18,0,0,1,0,.34c-.07.29-.19.36-.33.33s-.43-.36-.53-.51h0a2.36,2.36,0,0,0-.67-.6L48,45l0,0,0-.05Zm.8-.44c-.27.19-.54.37-.65.47l.19.12a2.5,2.5,0,0,1,.71.64h0c.09.13.3.42.46.46s.13,0,.17-.24a2.69,2.69,0,0,0,0-.32v-.15l.07,0a1.19,1.19,0,0,1,.56.3c.12.09.2.16.28.09s0-.32,0-.59a3.52,3.52,0,0,0-.53-1h0l-.17-.23s0,0,0,0a.79.79,0,0,1-.39,0,5.76,5.76,0,0,1-.69.5Zm1.09-.5Zm0,0Z"/><path class="cls-2" d="M48.14,41.3a1,1,0,0,0-1.3.79,2.35,2.35,0,0,0,1.83,1.71,2.13,2.13,0,0,0,2.29-1c-.1-.86-.4-1.42-1.12-1.33a.86.86,0,0,0-1.7-.15Z"/><path class="cls-7" d="M48.13,41.36a1.13,1.13,0,0,0-.83.12,1.2,1.2,0,0,0-.4.6h0a2.25,2.25,0,0,0,1.78,1.64,2.14,2.14,0,0,0,1.3-.14,2.25,2.25,0,0,0,.91-.83,2,2,0,0,0-.32-1,.73.73,0,0,0-.73-.29h-.07v-.07a.84.84,0,0,0-.39-.69.89.89,0,0,0-.36-.11.76.76,0,0,0-.83.66v.06Zm-.9,0a1.12,1.12,0,0,1,.86-.15.9.9,0,0,1,.51-.63.9.9,0,0,1,.86.06.9.9,0,0,1,.44.72.82.82,0,0,1,.78.34A2.24,2.24,0,0,1,51,42.77v0a2.37,2.37,0,0,1-1,.89,2.22,2.22,0,0,1-1.38.16h0a2.37,2.37,0,0,1-1.87-1.72v-.07a1.22,1.22,0,0,1,.45-.69Z"/><path class="cls-20" d="M48.07,45a2.43,2.43,0,0,1-1.23-2.95,1.77,1.77,0,0,0,1.23.8c.39-.62.63-.82,1-.73s.42.45.59,1A2.52,2.52,0,0,0,51,42.78c.09,1.52-1.16,2.07-2.89,2.26Z"/><path class="cls-7" d="M48,45.1a3.27,3.27,0,0,1-1.24-1.39,2.26,2.26,0,0,1,0-1.64l0-.13.07.11a1.83,1.83,0,0,0,.49.51,1.63,1.63,0,0,0,.66.26,2.1,2.1,0,0,1,.5-.61.62.62,0,0,1,.56-.11h0c.35.08.45.42.6.94h0l0,.07a1.81,1.81,0,0,0,.6-.11,3.71,3.71,0,0,0,.61-.28l.09,0v.1a1.77,1.77,0,0,1-.8,1.69,4.79,4.79,0,0,1-2.15.65Zm-1.12-1.44A3.12,3.12,0,0,0,48.09,45a4.73,4.73,0,0,0,2.07-.62,1.62,1.62,0,0,0,.74-1.48,3.7,3.7,0,0,1-.54.24,2,2,0,0,1-.69.12h-.05v0l0-.12h0c-.13-.47-.22-.78-.5-.85h0a.52.52,0,0,0-.45.09,2.27,2.27,0,0,0-.5.61l0,0h0a1.69,1.69,0,0,1-.75-.29,2,2,0,0,1-.45-.43,2.06,2.06,0,0,0,.06,1.43Z"/><path class="cls-2" d="M45.5,49.08c.1-.25.18-.43.29-.69A12.63,12.63,0,0,0,44,46.79c-.7-.49-1.36-.27-1.42.11s.46.3.91.75a4.06,4.06,0,0,0-.37.32c-.58.56.41.5.71.52a5.43,5.43,0,0,1,1.63.59Z"/><path class="cls-19" d="M45.46,49l.25-.59-.24-.25A10.75,10.75,0,0,0,44,46.84a1.49,1.49,0,0,0-.61-.26,1,1,0,0,0-.42,0,.47.47,0,0,0-.25.17.29.29,0,0,0,0,.13c0,.15.11.21.3.3a2.41,2.41,0,0,1,.6.39l.05,0-.06.05-.07.06h0a2.65,2.65,0,0,0-.3.25c-.16.16-.18.25-.13.3a1.31,1.31,0,0,0,.67.11h.13a3.1,3.1,0,0,1,1.2.4c.13.06.26.13.39.18Zm.39-.58-.3.69,0,.06-.06,0-.45-.2a3,3,0,0,0-1.15-.39h-.13c-.24,0-.62,0-.76-.15s-.09-.25.13-.48.2-.17.31-.26h0a1.88,1.88,0,0,0-.52-.32c-.24-.12-.41-.2-.37-.44a.37.37,0,0,1,.08-.18.52.52,0,0,1,.31-.22,1,1,0,0,1,.48,0,1.71,1.71,0,0,1,.66.27,10.53,10.53,0,0,1,1.48,1.34l.27.28,0,0v0Z"/><path class="cls-2" d="M45.45,49.07c.2-.19,1.72-.66,1.92-.84.71.34.36-.18.69.55s.51,1.94.18,2.12-.36-.4-.93-.68c-.06.16-.11.33-.17.46-.35.73-.7-.17-.81-.45a3.88,3.88,0,0,0-.88-1.16Z"/><path class="cls-19" d="M45.41,49a4.68,4.68,0,0,1,1-.43,4.89,4.89,0,0,0,.94-.41l0,0,0,0a.83.83,0,0,0,.43.13.07.07,0,0,1,.08,0h0s0,0,.07.13l.14.31a4.75,4.75,0,0,1,.34,1.37c0,.4,0,.73-.19.82s-.32,0-.47-.21a1.33,1.33,0,0,0-.45-.43v0a3.34,3.34,0,0,1-.15.38c-.14.3-.3.36-.45.28h0c-.22-.1-.39-.53-.47-.72h0a2.78,2.78,0,0,0-.62-.89l-.25-.26,0,0,0,0Zm1-.31a7.53,7.53,0,0,0-.88.37l.19.2a2.75,2.75,0,0,1,.64.93h0c.07.18.23.58.41.66h0c.08,0,.17,0,.28-.23a2.46,2.46,0,0,0,.14-.36l0-.09,0-.07.06,0a1.55,1.55,0,0,1,.56.5c.11.15.19.25.31.18s.16-.35.13-.7A4.64,4.64,0,0,0,48,48.81a2.36,2.36,0,0,1-.13-.32l0-.07h0c-.06,0-.17,0-.46-.12a6.5,6.5,0,0,1-1,.41Zm1.4-.29s0,0,0,0Z"/><path class="cls-2" d="M46.55,44.83a1.22,1.22,0,0,0-1.72.56,2.8,2.8,0,0,0,1.67,2.48,2.54,2.54,0,0,0,2.93-.56c.11-1-.08-1.75-.94-1.85a1,1,0,0,0-1.94-.63Z"/><path class="cls-7" d="M46.53,44.89a1.27,1.27,0,0,0-1-.09,1.41,1.41,0,0,0-.64.6v0a2.72,2.72,0,0,0,1.63,2.39,2.6,2.6,0,0,0,1.55.18,2.77,2.77,0,0,0,1.29-.71,2.45,2.45,0,0,0-.11-1.22.9.9,0,0,0-.78-.54h-.07l0-.07a1,1,0,0,0-.27-.91.92.92,0,0,0-.39-.23h0a.9.9,0,0,0-.46,0,1,1,0,0,0-.7.57l0,.06-.06,0Zm-1-.2a1.34,1.34,0,0,1,1,.06,1.08,1.08,0,0,1,.77-.6,1.1,1.1,0,0,1,.51,0h0a1.07,1.07,0,0,1,.45.26,1.1,1.1,0,0,1,.31,1,1,1,0,0,1,.82.6,2.55,2.55,0,0,1,.11,1.3l0,0a2.6,2.6,0,0,1-3,.58h0a2.8,2.8,0,0,1-1.69-2.48v-.08a1.47,1.47,0,0,1,.71-.67Z"/><path class="cls-20" d="M45.47,49.15q-1.77-1.92-.64-3.76a2.08,2.08,0,0,0,1.22,1.26c.61-.61,1-.77,1.37-.57s.36.63.4,1.33a3.05,3.05,0,0,0,1.61-.1c-.32,1.78-1.91,2.08-4,1.84Z"/><path class="cls-7" d="M45.42,49.19a3.82,3.82,0,0,1-1.06-1.93,2.75,2.75,0,0,1,.42-1.9l.07-.11,0,.12a2.75,2.75,0,0,0,.43.72,2,2,0,0,0,.71.49,2.65,2.65,0,0,1,.75-.58.75.75,0,0,1,.67,0c.37.18.39.6.43,1.24v.09a2.31,2.31,0,0,0,.74,0,4.46,4.46,0,0,0,.79-.17l.1,0,0,.1a2.09,2.09,0,0,1-1.37,1.73,5.81,5.81,0,0,1-2.66.16l0,0Zm-.93-1.95a3.68,3.68,0,0,0,1,1.85,5.6,5.6,0,0,0,2.58-.16,2,2,0,0,0,1.27-1.54,3.66,3.66,0,0,1-.72.14,2.33,2.33,0,0,1-.83-.05l0,0v-.18h0c0-.6,0-1-.36-1.14a.65.65,0,0,0-.56,0,2.79,2.79,0,0,0-.74.58l0,0,0,0a2.09,2.09,0,0,1-.79-.54,2.5,2.5,0,0,1-.41-.64,2.58,2.58,0,0,0-.33,1.71Z"/><path class="cls-21" d="M41.05,21.86l-.49-.27a9.6,9.6,0,0,0-1.27,1.2c-.39.5-.27,1,0,1.1s.24-.34.59-.64c.07.11.15.22.22.31.38.47.39-.28.41-.51a3.82,3.82,0,0,1,.53-1.19Z"/><path class="cls-22" d="M41,21.89c-.12-.17-.39-1.35-.51-1.52.29-.52-.11-.29.44-.48s1.44-.25,1.56,0-.32.24-.55.65a3.34,3.34,0,0,1,.33.17c.51.32-.16.52-.37.59a2.54,2.54,0,0,0-.9.57Z"/><path class="cls-23" d="M38,20.73a1,1,0,0,0,.32,1.35A1.94,1.94,0,0,0,40.21,21,2,2,0,0,0,40,18.73c-.73-.16-1.28-.07-1.39.58A.77.77,0,0,0,38,20.73Z"/><path class="cls-24" d="M41.09,21.89a2,2,0,0,1-2.78.19,1.48,1.48,0,0,0,1-.82c-.42-.52-.52-.78-.34-1.09s.47-.23,1-.2a2.48,2.48,0,0,0,0-1.24c1.29.38,1.43,1.61,1.14,3.16Z"/><path class="cls-7" d="M12.81,51.34l.3.54-.25.14-.73-1.32.25-.14.3.54.41-.23-.3-.53L13,50.2l.73,1.31-.25.14-.3-.53-.41.22Zm1.5-.79-.38-.34.07.51.31-.17ZM14,51l.05.33-.26.14-.21-1.59.22-.12L15,50.83l-.27.15-.25-.23L14,51Zm1-1,.08-.87L15.4,49l-.11.87.74.49-.29.13L15,50Zm.31.68-.26.12-.64-1.36.26-.12.64,1.36Zm1.16-1.19-.35-.37,0,.51.32-.14Zm-.3.44v.33l-.27.12-.06-1.61.22-.09,1.11,1.16-.29.12-.22-.25-.5.22ZM17.25,49l.06,0a.43.43,0,0,0,.22-.15.2.2,0,0,0,0-.21.2.2,0,0,0-.13-.14.36.36,0,0,0-.24,0l-.1,0,.17.45Zm.28.72-.27.11-.54-1.4.33-.13.23-.08h.15a.43.43,0,0,1,.23.09.41.41,0,0,1,.15.21.42.42,0,0,1,0,.31.41.41,0,0,1-.18.23l.55.42-.32.12-.6-.52.25.65Zm1.15-1,.17.52-.27.09-.17-.52-.69-.78L18,48l.44.54,0-.69.29-.1-.11,1Zm.63-.45a.48.48,0,0,0,.08.16.37.37,0,0,0,.13.12.45.45,0,0,0,.18.07.37.37,0,0,0,.18,0,.42.42,0,0,0,.27-.22.47.47,0,0,0,0-.37.45.45,0,0,0-.22-.28.41.41,0,0,0-.34,0,.4.4,0,0,0-.27.22.43.43,0,0,0,0,.35Zm-.29.09a1,1,0,0,1,0-.23.91.91,0,0,1,0-.23.72.72,0,0,1,.2-.31.74.74,0,0,1,.32-.19.88.88,0,0,1,.28,0,.73.73,0,0,1,.28.1.71.71,0,0,1,.23.19.87.87,0,0,1,.14.27.77.77,0,0,1,0,.3.89.89,0,0,1-.08.29.88.88,0,0,1-.19.24.87.87,0,0,1-.27.14.76.76,0,0,1-.3,0,.77.77,0,0,1-.29-.1.83.83,0,0,1-.22-.2.84.84,0,0,1-.13-.27Zm3.67-.93v0a1.09,1.09,0,0,1,0,.18.88.88,0,0,1,0,.16.75.75,0,0,1-.21.37.69.69,0,0,1-.38.19.65.65,0,0,1-.31,0,.86.86,0,0,1-.29-.14.91.91,0,0,1-.18-.21,1,1,0,0,1-.11-.28.61.61,0,0,1,0-.3.89.89,0,0,1,.12-.29.64.64,0,0,1,.2-.2.86.86,0,0,1,.28-.11.69.69,0,0,1,.43,0,.73.73,0,0,1,.32.29l-.34.06a.56.56,0,0,0-.17-.09.45.45,0,0,0-.2,0,.4.4,0,0,0-.28.2.47.47,0,0,0-.07.35.45.45,0,0,0,.2.31.42.42,0,0,0,.34.08.46.46,0,0,0,.23-.12.51.51,0,0,0,.12-.23l-.57.11,0-.25.89-.17Zm.11-.74.29,0,.12.86a.62.62,0,0,0,.08.27.14.14,0,0,0,.15.06.14.14,0,0,0,.13-.1.64.64,0,0,0,0-.28l-.12-.86.29,0,.13.94c0,.11,0,.19,0,.24a.83.83,0,0,1,0,.15.47.47,0,0,1-.14.17.52.52,0,0,1-.23.08.48.48,0,0,1-.42-.14.54.54,0,0,1-.07-.13.89.89,0,0,1,0-.24l-.14-.94ZM24.46,48l-.28,0-.13-1.49.27,0,.69.91-.09-1,.28,0,.13,1.49-.26,0-.7-.93.09,1Zm1.32-.9a.34.34,0,0,0,0,.18.4.4,0,0,0,.1.15.43.43,0,0,0,.34.14.43.43,0,0,0,.31-.16.46.46,0,0,0,.11-.35.39.39,0,0,0-.15-.32.38.38,0,0,0-.32-.12.48.48,0,0,0-.32.15.46.46,0,0,0-.11.33Zm-.3,0a.58.58,0,0,1,0-.23.66.66,0,0,1,.08-.21.84.84,0,0,1,.26-.27.74.74,0,0,1,.35-.1.57.57,0,0,1,.29,0,.73.73,0,0,1,.25.15.69.69,0,0,1,.18.24.85.85,0,0,1,0,.6.82.82,0,0,1-.14.26.88.88,0,0,1-.24.19.82.82,0,0,1-.59,0,.87.87,0,0,1-.26-.16.82.82,0,0,1-.16-.25.69.69,0,0,1-.07-.29Zm2.61.65H27.8v-1.5h.38l.37,1.09.37-1.09h.38v1.5H29V46.7l-.37,1.09h-.22l-.37-1.09,0,1.09Zm2.14-.54-.16-.49-.19.47.35,0Zm-.46.26-.13.31h-.29L30,46.33h.25l.5,1.52h-.3l-.11-.32-.54,0Zm1.3.37-.28,0,.1-1.49.38,0,.29,1.12L32,46.44l.38,0L32.28,48,32,48l.09-1.09-.45,1.06h-.21l-.3-1.12-.06,1.09Zm2.2-.36-.11-.5-.24.46.35,0Zm-.49.22-.15.29-.3,0,.77-1.41.25,0,.34,1.56-.3,0-.07-.33-.54-.07Zm1.5,0-.09.53-.28,0,.08-.54-.26-1,.31,0,.15.68.35-.6.31,0-.57.88Zm.67-.83.29.06-.17.85a.68.68,0,0,0,0,.28.17.17,0,0,0,.28,0,.51.51,0,0,0,.09-.26L35.6,47l.28.05L35.7,48a1.46,1.46,0,0,1-.06.23.27.27,0,0,1-.09.12.39.39,0,0,1-.19.12.45.45,0,0,1-.23,0,.37.37,0,0,1-.22-.09.44.44,0,0,1-.14-.18l0-.14a1.52,1.52,0,0,1,0-.24l.18-.94Zm2,1.08h0a.38.38,0,0,0,.18,0,.14.14,0,0,0,.09-.11.17.17,0,0,0,0-.14.34.34,0,0,0-.16-.09h0l-.09.33Zm-.18.61.09,0a.25.25,0,0,0,.19,0,.16.16,0,0,0,.1-.11.19.19,0,0,0,0-.17.26.26,0,0,0-.17-.1l-.08,0-.11.38Zm-.33.18.41-1.45.3.09.15,0,.08.05a.41.41,0,0,1,.14.19.31.31,0,0,1,0,.23.45.45,0,0,1-.08.17.27.27,0,0,1-.14.07.37.37,0,0,1,.13.17.45.45,0,0,1,0,.23.4.4,0,0,1-.1.18.53.53,0,0,1-.14.12.33.33,0,0,1-.17,0,1.39,1.39,0,0,1-.23,0l-.35-.1Zm1.82-.07,0-.51-.31.41.33.1Zm-.51.13-.21.26L37.24,49l1-1.25.24.08.07,1.6-.3-.1V49l-.51-.17ZM39,48l.27.11-.12,1,.6-.81.18.07-.1,1,.57-.82.28.11L39.7,49.9l-.21-.09.11-1-.57.79-.21-.08L39,48Zm1.74,1.52a.58.58,0,0,0,0,.18.33.33,0,0,0,0,.17.46.46,0,0,0,.09.17.33.33,0,0,0,.15.11.43.43,0,0,0,.35,0,.51.51,0,0,0,.26-.26.45.45,0,0,0,0-.36.43.43,0,0,0-.23-.25.47.47,0,0,0-.35,0,.46.46,0,0,0-.26.25Zm-.28-.11a.77.77,0,0,1,.13-.2.61.61,0,0,1,.17-.15.77.77,0,0,1,.35-.12.76.76,0,0,1,.36.06.81.81,0,0,1,.24.17,1,1,0,0,1,.15.25.79.79,0,0,1,0,.3.73.73,0,0,1-.07.29.9.9,0,0,1-.17.26.82.82,0,0,1-.54.22.77.77,0,0,1-.3-.06.94.94,0,0,1-.25-.18.61.61,0,0,1-.15-.26,1,1,0,0,1,0-.29,1,1,0,0,1,.07-.29Zm1.48,1.5-.25-.13.68-1.34.24.13.11,1.13.43-.86.25.13-.68,1.34-.24-.13L42.35,50l-.45.88Zm1.59,0a.49.49,0,0,0-.06.17.54.54,0,0,0,0,.18.53.53,0,0,0,.08.17.4.4,0,0,0,.13.13.47.47,0,0,0,.35,0,.52.52,0,0,0,.29-.24.48.48,0,0,0,0-.35.45.45,0,0,0-.21-.28.47.47,0,0,0-.35,0,.43.43,0,0,0-.28.22Zm-.26-.15a.86.86,0,0,1,.14-.18.8.8,0,0,1,.19-.13.64.64,0,0,1,.36-.08.74.74,0,0,1,.35.1.67.67,0,0,1,.22.19.83.83,0,0,1,.12.27.76.76,0,0,1,0,.3.73.73,0,0,1-.1.28,1.12,1.12,0,0,1-.19.24.68.68,0,0,1-.27.13.77.77,0,0,1-.3,0,.71.71,0,0,1-.28-.09.76.76,0,0,1-.23-.2.9.9,0,0,1-.13-.28,1,1,0,0,1,0-.29.86.86,0,0,1,.11-.29Z"/></g></g></svg>