<svg xmlns="http://www.w3.org/2000/svg" viewBox="0 0 562.39 137.23">
    <defs>
        <style>
            .cls-1 {
                fill: #4F4F4F;
            }
        </style>
    </defs>
    <g id="Layer_2" data-name="Layer 2">
        <g id="Layer_1-2" data-name="Layer 1">
            <g id="Layer_1-3" data-name="Layer_1">
                <g id="_2984605243728" data-name=" 2984605243728">
                    <polygon class="cls-1"
                        points="87.12 89.28 53.42 22.1 28.8 71.35 58.18 71.35 67.1 89.28 0 89.28 44.64 0 62.35 0 106.99 89.28 87.12 89.28" />
                    <path class="cls-1"
                        d="M141.77.72a53.4,53.4,0,0,1,24.55,5.47,38.84,38.84,0,0,1,16.42,15.7,46.49,46.49,0,0,1,5.83,23.54c0,8.93-1.95,16.78-5.83,23.47a38.77,38.77,0,0,1-16.42,15.48c-7.06,3.68-15.26,5.55-24.55,5.55H110.66V.72Zm-.65,73.94c9.29,0,16.49-2.52,21.6-7.63s7.63-12.31,7.63-21.6-2.52-16.56-7.63-21.74-12.31-7.92-21.6-7.92h-12.6V74.66ZM219.74.72V89.93H201.89V.72Zm72,72.22H256.32l-5.83,17H231.77l32-89.35h20.73l31.9,89.35H297.58Zm-4.89-14.33L274,21.31l-12.81,37.3Zm87.26,31.32L354.53,55.15h-8.35V89.93H328.32V.72h33.34c6.91,0,12.74,1.22,17.56,3.67a25,25,0,0,1,10.88,9.79,27,27,0,0,1,3.6,13.9,26.83,26.83,0,0,1-5,15.91c-3.39,4.68-8.43,8-15.12,9.72l21.24,36.22ZM346.18,41.76H361c4.89,0,8.49-1.22,10.87-3.53s3.53-5.61,3.53-9.79-1.15-7.27-3.53-9.5-6-3.39-10.87-3.39H346.18ZM470.3.72V15.19H446.62V89.93H428.83V15.19H405.14V.72Zm67.4,72.22H502.34l-5.83,17H477.79l32-89.35H530.5l31.89,89.35H543.6Zm-4.83-14.33-12.81-37.3-12.89,37.3Z" />
                </g>
                <path class="cls-1"
                    d="M74.16,122.33A16.37,16.37,0,0,1,76,114.7a12.93,12.93,0,0,1,11.74-7,12.58,12.58,0,0,1,5.54,1.23,11,11,0,0,1,4.32,3.24V98.35h6v38.38h-6v-4.25a10.42,10.42,0,0,1-4,3.38,11.79,11.79,0,0,1-5.83,1.37,13,13,0,0,1-6.84-1.87A13.44,13.44,0,0,1,76,130,16.66,16.66,0,0,1,74.16,122.33Zm23.4.07a9.82,9.82,0,0,0-1.22-5.11A8.86,8.86,0,0,0,93.17,114a8.37,8.37,0,0,0-8.5,0,8.82,8.82,0,0,0-3.24,3.24,10.5,10.5,0,0,0-1.15,5.11,11,11,0,0,0,1.15,5.18,8.77,8.77,0,0,0,3.24,3.39,8.32,8.32,0,0,0,4.25,1.22A8.76,8.76,0,0,0,93.17,131a8.54,8.54,0,0,0,3.17-3.39A9.89,9.89,0,0,0,97.56,122.4Zm28-.07a15.45,15.45,0,0,1,1.8-7.63,12.94,12.94,0,0,1,4.82-5.19,13.35,13.35,0,0,1,6.84-1.8,12.71,12.71,0,0,1,5.91,1.3,12.28,12.28,0,0,1,4,3.31v-4.18h6v28.59h-6v-4.25a11.24,11.24,0,0,1-4.11,3.38,12.23,12.23,0,0,1-5.9,1.37,13,13,0,0,1-6.77-1.87,13.33,13.33,0,0,1-4.82-5.33A15.72,15.72,0,0,1,125.57,122.33Zm23.4.07a10.44,10.44,0,0,0-1.23-5.11,8.76,8.76,0,0,0-3.16-3.31,8.22,8.22,0,0,0-4.32-1.16,8.53,8.53,0,0,0-7.42,4.4,10.52,10.52,0,0,0-1.22,5.11,11,11,0,0,0,1.22,5.18,7.77,7.77,0,0,0,3.24,3.39,8.07,8.07,0,0,0,4.18,1.22,9,9,0,0,0,4.32-1.15,8.45,8.45,0,0,0,3.16-3.39A10.5,10.5,0,0,0,149,122.4Zm40.32,14.83a14.92,14.92,0,0,1-6-1.22A10.5,10.5,0,0,1,179,132.7a8.56,8.56,0,0,1-1.65-4.68h6.12a4.4,4.4,0,0,0,1.72,3,6.5,6.5,0,0,0,4,1.22,6.79,6.79,0,0,0,3.89-1,2.82,2.82,0,0,0,1.37-2.45,2.5,2.5,0,0,0-1.51-2.38,33,33,0,0,0-4.9-1.73,39,39,0,0,1-5.18-1.72,8.72,8.72,0,0,1-3.53-2.52,6.66,6.66,0,0,1-1.51-4.54,7.4,7.4,0,0,1,1.37-4.18,9.64,9.64,0,0,1,3.88-2.95,14.43,14.43,0,0,1,5.76-1.08,11.75,11.75,0,0,1,7.85,2.45,8.83,8.83,0,0,1,3.24,6.7H194a4.34,4.34,0,0,0-1.59-3,5.74,5.74,0,0,0-3.81-1.15,6.13,6.13,0,0,0-3.53.86,2.73,2.73,0,0,0-1.3,2.38,2.41,2.41,0,0,0,.87,1.87,5.18,5.18,0,0,0,2,1.23c.8.28,1.95.72,3.53,1.15a30.49,30.49,0,0,1,5.11,1.65,10,10,0,0,1,3.46,2.52,7.43,7.43,0,0,1,.14,8.79,8.57,8.57,0,0,1-3.81,3A14.2,14.2,0,0,1,189.29,137.23Zm48.31-29.52a12,12,0,0,1,5.83,1.37,9.76,9.76,0,0,1,4,4.18,13.42,13.42,0,0,1,1.52,6.62v16.85h-5.91v-16a8.18,8.18,0,0,0-1.94-5.83,6.74,6.74,0,0,0-5.19-2.09,6.86,6.86,0,0,0-5.25,2.09,8.13,8.13,0,0,0-1.95,5.83v16h-6V98.35h6v13.11a9.75,9.75,0,0,1,3.75-2.74A12,12,0,0,1,237.6,107.71Zm41,4.68a11.2,11.2,0,0,1,4.1-3.38,14,14,0,0,1,12.75.5,13.44,13.44,0,0,1,4.82,5.19,16.34,16.34,0,0,1,1.73,7.63,16.63,16.63,0,0,1-1.73,7.7,13.44,13.44,0,0,1-4.9,5.33,13,13,0,0,1-6.84,1.87,12.7,12.7,0,0,1-5.83-1.29,11.91,11.91,0,0,1-4.1-3.32v4.11h-5.91V98.35h5.91ZM296,122.33a10.52,10.52,0,0,0-1.22-5.11,8.82,8.82,0,0,0-3.24-3.24,8.22,8.22,0,0,0-4.32-1.16A7.91,7.91,0,0,0,283,114a8.39,8.39,0,0,0-3.24,3.31,11.46,11.46,0,0,0,0,10.29A8.11,8.11,0,0,0,283,131a8.7,8.7,0,0,0,4.18,1.15,8.37,8.37,0,0,0,4.32-1.22,8.77,8.77,0,0,0,3.24-3.39A11,11,0,0,0,296,122.33Zm40.47,14.9a14.71,14.71,0,0,1-7.35-1.87,13.06,13.06,0,0,1-5.11-5.18,15.17,15.17,0,0,1-1.87-7.78,15.87,15.87,0,0,1,1.87-7.7,13.46,13.46,0,0,1,5.26-5.19,15.11,15.11,0,0,1,7.41-1.8,14.93,14.93,0,0,1,7.42,1.8,13.43,13.43,0,0,1,5.25,5.19,15.07,15.07,0,0,1,2,7.7,14.58,14.58,0,0,1-2,7.78,13.54,13.54,0,0,1-5.33,5.18A15.63,15.63,0,0,1,336.46,137.23Zm0-5.11A8.69,8.69,0,0,0,340.7,131a7.78,7.78,0,0,0,3.24-3.24,10.19,10.19,0,0,0,1.23-5.33,10.93,10.93,0,0,0-1.15-5.26,8.18,8.18,0,0,0-3.17-3.24,8.9,8.9,0,0,0-8.5,0,7.94,7.94,0,0,0-3.09,3.24,11.8,11.8,0,0,0-1.16,5.26,10.23,10.23,0,0,0,2.38,7.2A8,8,0,0,0,336.46,132.12Zm34.92-9.79a15.45,15.45,0,0,1,1.8-7.63,12.87,12.87,0,0,1,4.82-5.19,13.35,13.35,0,0,1,6.84-1.8,12.64,12.64,0,0,1,5.9,1.3,12.22,12.22,0,0,1,4,3.31v-4.18h6v28.59h-6v-4.25a11.24,11.24,0,0,1-4.11,3.38,12.26,12.26,0,0,1-5.9,1.37,13,13,0,0,1-6.77-1.87,13.26,13.26,0,0,1-4.82-5.33A15.72,15.72,0,0,1,371.38,122.33Zm23.4.07a10.55,10.55,0,0,0-1.23-5.11,8.71,8.71,0,0,0-3.17-3.31,8.48,8.48,0,0,0-8.56,0,8,8,0,0,0-3.17,3.24,10.52,10.52,0,0,0-1.23,5.11,11,11,0,0,0,1.23,5.18,7.77,7.77,0,0,0,3.24,3.39,8,8,0,0,0,4.17,1.22,9,9,0,0,0,4.32-1.15,8.4,8.4,0,0,0,3.17-3.39A10.61,10.61,0,0,0,394.78,122.4Zm35.85-10.08a9.2,9.2,0,0,1,3.46-3.38,9.54,9.54,0,0,1,5.11-1.23v6.12h-1.51a7.23,7.23,0,0,0-5.26,1.73c-1.22,1.22-1.8,3.24-1.8,6.12v15h-5.9V108.14h5.9Zm28.23,10a15.45,15.45,0,0,1,1.8-7.63,12.87,12.87,0,0,1,4.82-5.19,13.43,13.43,0,0,1,6.91-1.8,12.86,12.86,0,0,1,5.55,1.23,11,11,0,0,1,4.32,3.24V98.35h6v38.38h-6v-4.25a11,11,0,0,1-4,3.38,12,12,0,0,1-5.9,1.37,13.42,13.42,0,0,1-6.84-1.87,13.26,13.26,0,0,1-4.82-5.33A15.72,15.72,0,0,1,458.86,122.33Zm23.4.07a10.55,10.55,0,0,0-1.23-5.11,8.71,8.71,0,0,0-3.17-3.31,8.51,8.51,0,0,0-11.73,3.24,10.52,10.52,0,0,0-1.23,5.11,11,11,0,0,0,1.23,5.18,7.77,7.77,0,0,0,3.24,3.39,8.07,8.07,0,0,0,4.25,1.22,8.9,8.9,0,0,0,4.24-1.15,8.4,8.4,0,0,0,3.17-3.39A10.61,10.61,0,0,0,482.26,122.4Z" />
            </g>
        </g>
    </g>
</svg>